<?xml version="1.0" standalone="no"?>
<!DOCTYPE svg PUBLIC "-//W3C//DTD SVG 20010904//EN"
 "http://www.w3.org/TR/2001/REC-SVG-20010904/DTD/svg10.dtd">
<svg version="1.0" xmlns="http://www.w3.org/2000/svg"
 width="382.000000pt" height="500.000000pt" viewBox="0 0 382.000000 500.000000"
 preserveAspectRatio="xMidYMid meet">

<g transform="translate(0.000000,500.000000) scale(0.100000,-0.100000)"
fill="#000000" stroke="none">
<path d="M3 4523 c2 -391 6 -494 19 -568 9 -49 19 -119 21 -155 3 -36 10 -112
16 -170 49 -468 69 -593 97 -604 8 -3 14 -12 14 -20 0 -8 8 -21 18 -28 10 -7
27 -28 37 -45 11 -19 27 -33 38 -33 12 0 17 -6 15 -17 -4 -21 29 -63 50 -63
23 0 20 -4 203 283 26 39 80 124 121 187 41 63 91 142 112 175 20 33 93 148
161 255 363 571 519 825 518 841 -1 10 1 18 5 16 4 -1 9 3 11 8 3 6 10 15 16
22 15 15 12 106 -4 111 -6 2 -18 10 -25 18 -8 8 -23 14 -33 14 -15 0 -16 2 -3
10 10 6 11 10 3 10 -7 0 -13 7 -13 15 0 8 -4 15 -10 15 -5 0 -10 7 -10 15 0 8
-4 15 -10 15 -5 0 -10 11 -10 25 0 14 -4 25 -10 25 -6 0 -10 27 -10 60 l0 60
-670 0 -671 0 4 -477z"/>
<path d="M1735 4953 c-17 -25 -39 -60 -50 -78 -11 -17 -46 -71 -77 -118 -32
-48 -65 -101 -74 -119 -9 -18 -23 -40 -31 -49 -7 -9 -58 -88 -113 -175 -54
-88 -119 -191 -144 -230 -24 -39 -49 -89 -55 -110 -13 -47 -14 -114 -2 -133 9
-13 3 -44 -38 -189 -22 -81 -36 -172 -51 -342 -15 -172 -125 -700 -150 -715
-4 -3 -11 -24 -15 -47 -4 -22 -14 -56 -21 -74 -8 -18 -14 -44 -14 -56 0 -13
-14 -56 -30 -97 -33 -81 -34 -85 -20 -76 15 10 12 -41 -6 -83 -8 -20 -27 -75
-40 -122 -14 -46 -29 -89 -33 -95 -5 -5 -11 -21 -13 -35 -3 -14 -18 -70 -33
-125 -15 -55 -31 -122 -35 -150 -12 -71 -29 -137 -41 -151 -5 -6 -8 -64 -8
-128 2 -113 3 -117 23 -114 32 5 75 -61 67 -101 -1 -8 2 -17 8 -20 20 -13 -24
-155 -96 -311 -9 -19 -17 -41 -19 -47 -1 -7 -12 -42 -23 -77 -12 -36 -21 -72
-21 -81 0 -8 18 -33 39 -55 27 -28 43 -56 51 -89 14 -59 58 -96 128 -108 22
-4 30 11 12 22 -11 7 -2 57 13 66 5 4 6 9 0 12 -16 10 0 147 18 147 4 0 11 -5
14 -10 5 -8 11 -7 21 1 11 9 14 8 14 -5 0 -9 7 -16 15 -16 18 0 20 20 3 20 -7
1 1 7 17 14 l30 13 -27 13 c-24 12 -31 11 -48 -5 -16 -14 -23 -16 -32 -7 -7 7
-26 12 -44 12 -42 0 -64 9 -64 26 0 8 -4 14 -8 14 -4 0 -8 16 -8 35 0 25 5 37
18 41 10 3 18 11 19 17 1 27 10 64 20 90 11 26 20 31 45 28 7 -1 15 6 18 15 4
12 2 15 -9 10 -9 -3 -15 0 -15 8 0 14 49 15 95 3 11 -3 23 -6 28 -6 4 -1 7
-12 7 -26 0 -25 14 -33 25 -15 11 17 23 11 27 -12 2 -15 9 -22 21 -22 9 1 17
-2 17 -7 0 -5 -5 -9 -12 -9 -18 0 0 -13 36 -25 29 -10 37 -10 50 3 14 14 16
14 22 -1 3 -9 17 -17 30 -17 17 0 22 -4 18 -15 -4 -8 -12 -15 -20 -15 -8 0
-14 -9 -14 -20 0 -10 -6 -23 -12 -27 -18 -11 -38 -50 -31 -57 12 -12 22 -6 36
20 13 25 14 25 32 8 23 -23 66 -46 73 -39 3 3 -4 19 -16 35 -12 16 -22 31 -22
34 0 3 22 4 50 2 42 -2 56 -9 95 -44 26 -23 53 -42 61 -42 8 0 14 -8 14 -18 0
-23 -35 -56 -49 -47 -14 8 -14 3 -1 -31 8 -21 14 -24 22 -16 16 16 28 15 28
-3 0 -8 5 -15 11 -15 6 0 9 7 5 15 -4 11 1 15 19 15 13 0 27 4 30 10 3 5 0 10
-8 10 -7 0 -20 12 -27 26 -12 22 -12 27 0 34 22 14 43 12 37 -3 -3 -8 -1 -20
4 -28 7 -11 9 -10 9 4 0 11 5 17 13 14 7 -2 11 -17 9 -36 -2 -25 2 -31 17 -31
12 0 18 7 17 18 0 9 4 16 11 15 6 -1 17 4 23 12 28 34 71 7 55 -32 -5 -12 -9
-14 -12 -5 -7 20 -20 14 -18 -9 1 -11 7 -24 14 -29 8 -4 10 -13 7 -19 -4 -6
-2 -11 3 -11 15 0 14 -27 -1 -33 -8 -2 -9 -8 -4 -13 5 -5 11 -4 13 4 3 6 10
12 16 12 7 0 20 17 29 38 16 38 15 59 -3 32 -8 -13 -10 -13 -19 0 -7 11 -5 16
5 18 8 2 15 14 15 27 0 27 31 58 37 38 6 -18 33 -16 33 2 0 8 5 15 10 15 16 0
12 -15 -9 -34 -11 -10 -25 -15 -30 -11 -6 3 -11 -1 -11 -9 0 -8 6 -19 13 -23
8 -4 16 -16 20 -25 5 -13 0 -19 -19 -24 -18 -5 -22 -10 -15 -17 6 -6 11 -19
11 -29 0 -13 -8 -18 -29 -18 -16 0 -34 -7 -41 -15 -8 -10 -21 -13 -34 -9 -20
6 -20 6 -3 -13 9 -11 17 -24 17 -30 0 -6 7 -14 17 -17 14 -6 14 -9 -5 -26 -27
-25 -30 -25 -57 4 -19 21 -24 22 -46 10 -13 -7 -22 -13 -19 -14 3 0 28 -8 55
-18 56 -20 84 -20 132 -1 34 14 52 39 28 39 -20 0 -29 20 -16 33 6 6 11 22 11
35 0 15 5 22 13 19 6 -2 11 -14 9 -25 -2 -12 1 -22 7 -22 6 0 8 7 5 15 -4 8
-1 15 5 15 6 0 11 10 11 23 1 19 2 20 10 5 6 -9 9 -27 8 -40 -3 -20 2 -23 35
-26 28 -2 37 0 37 12 0 18 25 22 35 6 9 -15 -4 -50 -20 -50 -15 0 -25 -54 -13
-72 6 -10 8 -10 8 -1 0 7 3 12 8 12 20 -3 32 2 32 16 0 8 7 15 15 15 9 0 18 7
21 15 4 8 12 15 19 15 8 0 27 19 43 43 16 23 35 41 42 39 7 -2 16 2 20 7 4 7
13 6 26 -4 18 -13 18 -14 1 -15 -13 0 -17 -5 -12 -19 7 -22 -17 -35 -46 -26
-22 7 -23 2 -9 -26 6 -10 18 -19 26 -19 8 0 13 4 10 9 -3 4 3 16 14 26 16 14
24 15 54 5 20 -6 36 -16 36 -20 0 -5 -7 -6 -17 -3 -11 4 -14 3 -9 -5 4 -7 14
-12 22 -12 8 0 14 -4 14 -9 0 -15 40 -24 54 -12 6 5 23 8 37 5 20 -5 19 -3 -9
15 -18 12 -37 19 -42 16 -10 -6 -25 34 -16 43 4 3 22 -2 41 -11 39 -18 75 -22
75 -8 0 5 -11 12 -24 15 -13 3 -26 14 -29 25 -4 16 -12 19 -42 16 -21 -2 -42
-10 -46 -17 -7 -10 -9 -8 -9 5 0 10 -4 15 -10 12 -6 -3 -7 1 -4 10 12 30 64
47 64 20 0 -8 5 -15 11 -15 6 0 9 9 6 20 -4 14 2 25 19 36 27 18 65 11 46 -8
-7 -7 -12 -16 -12 -20 0 -12 28 -9 32 3 3 8 10 5 22 -6 12 -13 14 -21 7 -28
-13 -13 -14 -30 -2 -22 5 3 13 1 16 -5 4 -6 16 -8 27 -4 18 5 20 3 13 -12 -5
-11 -9 -32 -9 -47 -1 -17 -10 -36 -23 -47 -13 -10 -23 -26 -23 -37 -1 -14 -4
-11 -16 10 -11 21 -22 27 -49 27 -18 0 -37 -5 -41 -11 -4 -8 0 -9 15 -4 17 5
23 1 31 -20 13 -34 13 -45 -1 -45 -5 0 -8 3 -6 8 3 4 1 16 -4 27 -8 19 -8 19
-15 -3 -8 -26 -15 -27 -57 -5 -33 17 -109 19 -115 2 -2 -5 -10 -9 -18 -9 -8 0
-14 -7 -12 -16 2 -10 -3 -19 -9 -21 -9 -3 -13 6 -13 26 0 32 -20 45 -20 14 0
-10 -7 -27 -15 -38 -14 -18 -16 -18 -32 -2 -12 11 -13 17 -5 17 23 0 38 23 34
52 -4 28 -16 36 -27 18 -3 -5 -18 -10 -32 -10 -16 0 -27 -7 -30 -20 -4 -17
-12 -19 -51 -15 -53 5 -86 -16 -76 -47 8 -25 -12 -23 -30 4 -9 12 -16 17 -16
11 0 -6 -12 -13 -27 -15 -18 -2 -29 -10 -31 -21 -3 -15 0 -18 16 -13 11 4 23
2 27 -5 6 -8 9 -8 15 1 6 9 12 9 29 -1 24 -16 28 -39 6 -39 -9 0 -15 -9 -15
-21 0 -14 -5 -19 -14 -16 -8 3 -17 -1 -20 -9 -6 -16 -46 -19 -46 -3 0 6 -9 9
-19 6 -13 -3 -18 0 -15 8 7 17 -25 28 -42 14 -8 -6 -30 -8 -60 -3 -34 5 -45 4
-40 -5 4 -6 16 -11 27 -11 12 0 19 -7 19 -19 0 -15 5 -17 28 -13 23 5 25 3 14
-10 -14 -17 -117 -25 -107 -8 3 6 15 10 26 10 26 0 24 17 -3 26 -15 4 -25 1
-35 -12 -18 -25 -17 -29 15 -44 15 -8 29 -16 31 -17 13 -8 -45 -43 -63 -38
-21 6 -21 6 -2 -9 25 -20 56 -20 56 -1 0 25 29 29 53 7 19 -17 36 -20 125 -21
l104 0 39 39 c42 41 50 63 22 58 -12 -2 -18 3 -17 14 2 22 -3 22 -40 3 -16 -9
-31 -14 -33 -12 -2 2 3 19 11 38 11 27 20 34 43 35 15 0 31 -4 36 -10 13 -20
25 15 16 48 -12 42 -11 76 2 76 6 0 8 -8 4 -19 -3 -11 0 -23 7 -28 7 -4 19
-19 27 -32 12 -22 11 -26 -8 -40 -20 -15 -20 -18 -6 -38 20 -29 4 -120 -18
-106 -7 4 -6 -1 2 -10 17 -21 67 -22 88 -2 8 8 19 13 24 10 5 -4 9 -1 9 6 0 7
8 2 19 -9 10 -12 28 -22 40 -22 17 0 21 6 21 30 0 20 5 30 15 30 8 0 15 -9 15
-20 0 -11 -4 -20 -10 -20 -5 0 -10 -4 -10 -10 0 -5 36 -9 81 -9 75 0 81 2 76
20 -3 10 -2 17 2 15 8 -5 91 116 91 132 0 6 4 12 9 14 13 5 161 236 161 253 0
8 6 18 14 22 20 12 37 50 30 68 -5 11 0 18 14 21 13 4 18 12 15 25 -3 10 0 19
6 19 6 0 11 5 11 10 0 6 -7 10 -15 10 -11 0 -12 5 -5 26 13 33 13 33 -10 27
-11 -3 -20 -14 -20 -24 0 -11 -4 -19 -10 -19 -5 0 -10 7 -10 15 0 8 -6 15 -14
15 -8 0 -21 3 -30 6 -12 4 -16 0 -16 -16 0 -15 -4 -20 -15 -17 -8 4 -17 2 -21
-4 -3 -6 -13 -8 -22 -4 -20 7 -34 -15 -20 -32 7 -9 7 -13 -1 -13 -6 0 -14 0
-18 0 -5 0 -8 9 -8 20 0 14 14 28 39 43 26 15 40 30 43 47 2 14 8 27 13 28 15
5 12 18 -6 37 -19 19 -18 20 19 29 19 4 27 2 27 -6 0 -7 9 -19 20 -26 11 -7
20 -8 20 -3 0 6 -4 13 -10 16 -10 6 -14 55 -5 55 4 0 19 -7 35 -15 19 -10 27
-20 24 -30 -4 -8 -10 -15 -15 -15 -5 0 -9 -9 -9 -20 0 -23 15 -26 27 -5 6 9
13 11 23 5 12 -7 12 -11 -1 -26 -13 -16 -12 -17 19 -11 20 4 32 3 32 -4 0 -8
5 -7 15 1 10 9 12 17 6 23 -5 5 -7 16 -4 24 4 9 0 13 -8 11 -8 -2 -27 7 -43
20 -26 20 -28 25 -18 47 12 26 27 32 37 15 4 -6 11 -7 17 -4 6 4 14 0 19 -7
14 -23 10 -32 -11 -26 -26 7 -25 -3 4 -30 20 -20 25 -21 42 -9 18 14 18 15 1
33 -9 11 -17 30 -17 42 0 12 -4 19 -10 16 -17 -10 -33 5 -20 20 5 7 9 21 8 31
-4 34 24 105 39 100 9 -4 13 0 11 12 -2 12 3 16 20 15 13 -2 21 0 18 5 -2 4 2
16 10 27 10 13 14 15 14 4 0 -12 2 -12 9 0 8 12 12 12 25 2 20 -17 21 2 1 22
-16 17 -10 28 11 20 13 -5 18 9 17 45 -1 8 5 11 14 8 22 -9 53 12 53 35 0 11
9 29 20 41 15 16 20 18 20 7 0 -8 -6 -21 -12 -28 -11 -11 -9 -11 10 -2 18 9
22 20 22 56 0 62 18 66 26 5 6 -48 7 -50 20 -28 7 13 16 30 20 38 4 8 12 18
18 22 6 4 11 11 11 15 1 4 6 18 13 31 12 21 11 22 -20 22 -23 0 -29 -3 -19 -9
18 -11 5 -31 -20 -31 -15 0 -18 6 -16 28 2 15 7 34 11 40 4 7 2 19 -4 27 -9
11 -9 15 -1 15 6 0 11 9 11 20 0 11 5 20 11 20 7 0 9 -11 6 -30 -8 -40 3 -37
31 7 l23 36 -22 23 c-12 13 -19 27 -16 31 8 8 31 -20 49 -60 7 -15 19 -25 25
-22 7 2 13 -3 13 -13 1 -15 2 -15 15 2 8 10 12 22 10 27 -3 4 -2 9 2 12 5 2 2
2 -5 1 -7 -2 -18 5 -24 16 -7 11 -18 20 -25 20 -7 0 -13 4 -13 9 0 5 11 8 24
7 13 0 22 -5 19 -10 -6 -9 17 -27 28 -21 14 10 -4 55 -22 55 -23 0 -25 13 -5
29 12 10 18 7 31 -12 22 -34 49 -44 39 -15 -5 17 -3 20 10 15 11 -4 15 -3 11
4 -4 5 -16 9 -28 7 -15 -2 -23 3 -25 17 -3 11 -9 23 -16 27 -7 5 -3 8 8 8 15
0 17 3 8 12 -9 9 -21 8 -52 -5 -40 -16 -64 -7 -41 16 8 8 11 8 11 -1 0 -7 5
-12 10 -12 15 0 12 29 -5 46 -20 20 -19 26 5 52 11 12 20 28 20 37 0 18 17 20
23 3 5 -16 47 18 47 39 0 15 -12 17 -26 3 -5 -5 -14 -6 -21 -2 -16 10 -4 60
16 65 9 2 3 3 -12 2 -27 -2 -28 0 -22 32 6 32 5 33 -28 33 -18 0 -38 -5 -45
-12 -7 -7 -12 -9 -12 -4 0 17 31 36 59 36 23 0 31 5 31 17 0 13 -3 14 -12 5
-25 -25 -40 -14 -36 28 3 32 0 40 -13 40 -9 0 -20 -7 -23 -16 -3 -8 -11 -12
-16 -9 -8 5 -8 11 -1 19 6 7 8 16 4 19 -3 4 6 7 20 7 37 0 34 23 -5 41 -38 17
-46 34 -17 36 25 2 52 23 30 23 -8 0 -11 6 -7 15 10 26 -3 42 -30 37 -24 -4
-35 13 -12 20 8 3 3 14 -15 30 -36 34 -34 48 8 48 34 0 47 13 23 23 -10 4 -9
8 2 16 8 5 11 13 7 18 -5 4 -12 1 -17 -7 -14 -22 -43 0 -51 39 -5 26 -4 30 7
20 16 -13 29 -6 19 10 -3 7 -24 9 -49 6 -53 -7 -71 10 -62 56 5 25 2 32 -14
36 -11 3 -20 12 -20 21 0 8 -8 21 -17 29 -13 10 -15 16 -5 19 6 3 12 13 12 21
0 11 7 14 24 9 28 -7 56 1 56 16 0 6 -7 7 -16 4 -9 -4 -22 -2 -28 3 -6 5 -20
11 -31 14 -18 4 -18 5 3 6 12 1 22 7 22 16 0 17 -16 20 -25 5 -4 -6 -11 -8
-16 -5 -5 4 3 22 17 41 26 33 26 35 9 54 -17 19 -16 20 9 31 18 9 26 19 24 33
-3 30 20 66 42 66 11 0 20 5 20 11 0 7 -11 9 -28 6 -33 -7 -64 8 -44 21 7 5
10 16 7 25 -4 10 1 20 15 27 11 6 18 15 15 20 -8 12 27 80 53 103 12 11 26 16
31 12 14 -8 14 1 1 26 -9 15 -7 19 7 19 15 0 16 2 3 10 -13 8 -12 11 5 24 16
11 17 17 8 27 -9 9 -7 16 9 29 17 14 19 20 9 38 -15 29 -14 32 11 32 12 0 18
3 15 6 -3 4 -1 16 5 28 10 18 9 19 -4 8 -13 -10 -18 -9 -29 4 -11 13 -10 17 4
25 9 5 14 16 11 24 -4 11 1 15 17 16 23 0 23 1 4 9 -11 5 -16 9 -11 9 5 1 3 8
-4 16 -10 12 -10 15 4 15 9 0 16 -4 16 -9 0 -5 10 -11 22 -14 24 -7 66 17 49
28 -6 3 -11 1 -11 -4 0 -6 -8 -11 -19 -11 -15 0 -20 10 -26 53 -6 40 -9 48
-15 32 -9 -20 -9 -20 -9 1 -1 11 4 25 11 32 9 9 7 16 -7 32 -10 11 -13 20 -7
20 7 0 12 9 12 19 0 15 -5 18 -21 14 -18 -5 -20 -3 -14 17 6 19 4 22 -10 17
-13 -5 -16 -2 -13 15 2 14 13 25 28 29 16 4 19 7 8 8 -23 1 -23 17 -1 29 14 9
14 11 -6 21 -12 7 -26 9 -31 6 -5 -3 -12 0 -15 6 -4 6 -18 8 -33 4 -16 -4 -28
-1 -33 7 -6 10 -11 10 -20 1 -10 -10 -6 -14 14 -22 28 -11 44 -49 33 -77 -5
-14 -9 -14 -23 -3 -15 13 -15 14 0 17 24 5 21 15 -10 30 -18 8 -30 9 -37 2 -5
-5 -18 -10 -28 -10 -10 0 -18 -4 -18 -10 0 -5 3 -10 8 -10 9 0 13 -56 6 -88
-3 -17 -8 -21 -17 -15 -7 6 -32 11 -57 12 -35 2 -50 -3 -70 -21 -13 -13 -28
-22 -33 -20 -5 1 -6 -2 -2 -7 3 -6 2 -18 -4 -28 -5 -10 -14 -30 -20 -45 -6
-16 -16 -28 -22 -28 -6 0 -8 7 -5 16 5 12 2 15 -10 10 -8 -3 -20 -6 -25 -6 -5
0 -9 -7 -9 -16 0 -8 5 -12 10 -9 6 3 10 2 10 -4 0 -6 -12 -8 -27 -6 -30 6 -66
-19 -98 -69 -16 -24 -20 -25 -33 -13 -16 17 -9 37 14 37 8 0 14 6 14 14 0 8 6
17 13 19 6 3 2 6 -10 6 -12 1 -23 -4 -25 -9 -2 -6 -19 -13 -39 -16 -30 -5 -38
-2 -52 19 -21 32 -13 53 25 73 25 13 32 13 58 1 34 -18 39 -15 32 19 -3 18 -9
23 -20 19 -8 -3 -19 0 -24 7 -8 10 -11 10 -15 1 -9 -24 -23 -13 -23 17 0 17
-4 30 -9 30 -5 0 -9 -18 -9 -41 -1 -52 -5 -56 -19 -19 -8 21 -8 35 1 52 7 13
11 28 9 34 -2 7 6 14 18 17 15 4 20 11 15 22 -8 21 23 33 36 14 7 -11 11 -11
15 -1 2 6 11 12 19 12 8 0 14 9 14 20 0 11 -4 20 -10 20 -5 0 -10 9 -10 20 0
11 5 20 10 20 6 0 10 -7 10 -15 0 -16 12 -20 23 -9 4 4 -3 15 -14 25 -17 15
-18 18 -5 26 9 5 19 23 22 41 5 26 3 32 -10 32 -13 0 -16 -5 -11 -19 5 -17 2
-19 -21 -12 -34 9 -40 24 -19 44 9 10 11 18 5 22 -5 3 -10 15 -10 26 0 14 7
19 26 19 21 0 24 4 19 20 -5 14 -2 20 9 20 18 0 22 35 6 45 -5 3 -10 16 -10
27 0 12 -3 18 -7 15 -7 -8 -43 21 -43 35 0 4 7 8 16 8 10 0 14 6 10 15 -4 11
1 15 17 15 38 0 67 12 67 26 0 8 -4 14 -10 14 -5 0 -10 14 -10 30 0 30 14 41
23 18 2 -7 7 -10 11 -7 12 11 -28 68 -51 74 -13 3 -23 10 -23 16 0 6 6 6 19
-1 32 -17 61 -12 61 9 0 11 -4 23 -10 26 -5 3 -10 13 -10 22 0 11 6 14 26 9
22 -6 24 -4 16 11 -7 12 -5 24 5 40 9 14 12 30 8 40 -7 15 -9 13 -15 -12 -7
-29 -8 -29 -9 8 -1 34 -3 38 -22 32 -14 -5 -19 -3 -15 3 9 15 -158 130 -505
350 l-51 32 -142 0 -141 0 -30 -47z m573 -220 c-15 -2 -42 -2 -60 0 -18 2 -6
4 27 4 33 0 48 -2 33 -4z m-25 -140 c-18 -2 -48 -2 -65 0 -18 2 -4 4 32 4 36
0 50 -2 33 -4z m-15 -130 c-21 -2 -55 -2 -75 0 -21 2 -4 4 37 4 41 0 58 -2 38
-4z m302 -128 c0 -25 -14 -34 -24 -16 -8 12 3 41 15 41 5 0 9 -11 9 -25z
m-372 8 c-10 -2 -26 -2 -35 0 -10 3 -2 5 17 5 19 0 27 -2 18 -5z m70 0 c-10
-2 -26 -2 -35 0 -10 3 -2 5 17 5 19 0 27 -2 18 -5z m-468 -16 c0 -14 -20 -37
-32 -37 -10 0 -11 34 -1 43 11 12 33 8 33 -6z m460 -104 c0 -5 -31 -8 -70 -8
-38 0 -70 3 -70 8 0 4 32 7 70 7 39 0 70 -3 70 -7z m278 -65 c-6 -18 -48 -21
-48 -3 0 9 10 15 26 15 15 0 24 -5 22 -12z m-288 -47 c0 -5 -21 -6 -47 -4 -71
7 -75 11 -10 12 31 1 57 -3 57 -8z m-733 -33 c-3 -8 -6 -5 -6 6 -1 11 2 17 5
13 3 -3 4 -12 1 -19z m583 -78 c-19 -13 -30 -13 -30 0 0 6 10 10 23 10 18 0
19 -2 7 -10z m130 -1 c0 -6 -19 -9 -50 -7 -70 6 -75 18 -7 18 34 0 57 -4 57
-11z m-160 -99 c0 -5 -5 -10 -11 -10 -5 0 -7 5 -4 10 3 6 8 10 11 10 2 0 4 -4
4 -10z m150 0 c0 -5 -19 -9 -42 -9 l-43 2 35 7 c19 4 38 8 43 9 4 0 7 -3 7 -9z
m37 -12 c-3 -8 -6 -5 -6 6 -1 11 2 17 5 13 3 -3 4 -12 1 -19z m233 1 c0 -11
-4 -17 -10 -14 -5 3 -10 13 -10 21 0 8 5 14 10 14 6 0 10 -9 10 -21z m-290
-89 c0 -6 -35 -10 -85 -9 -48 0 -83 5 -79 10 7 12 164 12 164 -1z m766 -37
c-11 -11 -19 6 -11 24 8 17 8 17 12 0 3 -10 2 -21 -1 -24z m-731 -33 c3 -5 1
-10 -4 -10 -6 0 -11 5 -11 10 0 6 2 10 4 10 3 0 8 -4 11 -10z m-45 -22 c0 -5
-38 -8 -85 -8 -47 0 -85 3 -85 8 0 4 38 7 85 7 47 0 85 -3 85 -7z m43 -18 c3
-11 1 -23 -4 -26 -5 -3 -9 6 -9 20 0 31 6 34 13 6z m807 -45 c0 -8 -2 -15 -4
-15 -2 0 -12 -3 -21 -6 -15 -6 -15 -4 -4 15 16 25 29 27 29 6z m-860 -27 c0
-5 -40 -8 -90 -8 -52 0 -90 4 -90 10 0 6 36 9 90 7 49 -1 90 -5 90 -9z m-410
-67 c0 -5 -9 -7 -20 -4 -11 3 -20 7 -20 9 0 2 9 4 20 4 11 0 20 -4 20 -9z
m353 -18 c-23 -2 -64 -2 -90 0 -26 2 -7 3 42 3 50 0 71 -1 48 -3z m267 -33 c0
-5 -7 -10 -15 -10 -8 0 -15 5 -15 10 0 6 7 10 15 10 8 0 15 -4 15 -10z m-765
-17 c4 -10 9 -65 12 -123 6 -124 -9 -220 -37 -227 -14 -4 -19 -20 -24 -79 -4
-41 -16 -95 -26 -120 -34 -79 -100 -184 -138 -219 -36 -32 -37 -33 -54 -13
-13 16 -21 17 -37 9 -15 -8 -23 -7 -35 4 -8 8 -21 15 -28 15 -10 0 -13 19 -14
73 0 39 -2 86 -4 102 -2 17 0 93 5 170 8 135 9 142 41 193 32 49 54 66 54 41
0 -5 5 -7 12 -3 7 5 25 7 40 6 22 -2 31 3 38 22 5 13 17 27 28 30 10 4 47 35
83 71 35 35 67 64 70 64 4 1 10 -7 14 -16z m505 -27 c14 -2 -14 -4 -62 -5 -49
0 -88 2 -88 7 0 6 92 6 150 -2z m430 0 c0 -3 -4 -8 -10 -11 -5 -3 -10 -1 -10
4 0 6 5 11 10 11 6 0 10 -2 10 -4z m-420 -78 c0 -7 -191 1 -200 9 -3 3 41 3
98 2 56 -2 102 -6 102 -11z m-178 -161 c133 -2 160 -5 176 -20 31 -28 33 -55
7 -84 -26 -31 -27 -31 -260 -20 -147 7 -162 10 -179 30 -10 12 -23 21 -27 20
-5 -2 -9 2 -9 7 0 6 3 10 8 10 4 0 12 10 17 22 13 29 46 46 82 41 16 -1 99 -4
185 -6z m343 -82 c17 -5 32 -9 35 -10 3 -1 26 -5 53 -9 26 -5 47 -12 47 -17 0
-5 11 -9 24 -9 14 0 31 -7 39 -15 8 -8 17 -12 20 -9 8 8 87 -16 87 -26 0 -11
-2 -12 -40 -16 -14 -2 -43 -5 -65 -8 -22 -2 -80 -7 -129 -11 -49 -4 -109 -13
-134 -21 -26 -7 -48 -12 -50 -10 -2 2 0 20 3 40 7 34 22 45 39 29 7 -7 112 -6
151 2 11 2 30 4 43 4 73 3 -70 52 -156 55 l-53 1 5 35 c3 19 5 37 6 39 0 3 10
-5 23 -16 12 -11 36 -24 52 -28z m-111 0 c-4 -8 -8 -15 -10 -15 -2 0 -4 7 -4
15 0 8 4 15 10 15 5 0 7 -7 4 -15z m486 -95 c-6 -11 -13 -20 -16 -20 -2 0 0 9
6 20 6 11 13 20 16 20 2 0 0 -9 -6 -20z m-313 -114 c13 -15 28 -24 33 -21 5 3
32 7 58 9 27 2 53 5 58 8 20 13 87 13 92 0 2 -6 0 -12 -5 -12 -5 0 -8 -12 -5
-27 3 -24 0 -28 -22 -28 -14 0 -26 5 -26 10 0 6 -4 5 -8 -2 -6 -9 -56 -18
-128 -22 -7 -1 -14 -11 -16 -24 -4 -21 -1 -22 39 -20 24 2 43 -2 43 -8 0 -6 6
-6 19 1 11 5 22 6 25 1 3 -4 17 -6 31 -3 21 4 25 1 25 -21 0 -18 -7 -28 -22
-33 -13 -5 -25 -7 -28 -7 -3 1 -41 4 -85 8 -44 3 -96 8 -115 10 -19 2 -64 7
-100 11 -36 3 -67 8 -69 10 -2 1 -1 14 3 28 6 23 8 24 73 19 119 -8 136 -3
126 38 -8 31 -31 42 -81 40 -35 -1 -53 -8 -74 -28 -33 -32 -42 -27 -33 21 10
51 54 78 119 73 39 -3 55 -11 73 -31z m-486 -105 c160 -9 191 -17 209 -52 14
-26 6 -49 -26 -72 -23 -17 -35 -18 -177 -7 -217 15 -232 18 -261 45 -14 13
-26 27 -26 31 0 4 15 21 33 39 25 25 40 31 63 29 16 -2 99 -8 185 -13z m706
-3 c-3 -8 -6 -5 -6 6 -1 11 2 17 5 13 3 -3 4 -12 1 -19z m-1531 -54 c-3 -9 -6
-20 -6 -25 0 -5 -4 -9 -9 -9 -4 0 -6 11 -3 25 2 14 9 25 14 25 6 0 7 -7 4 -16z
m1143 -36 c22 -1 41 -4 41 -7 0 -3 -14 -14 -30 -23 -34 -19 -56 -59 -47 -82 8
-20 51 -41 69 -34 7 3 17 6 21 6 4 1 22 20 40 44 41 53 86 80 143 84 34 3 49
-1 64 -16 11 -11 20 -17 20 -12 0 4 7 -2 15 -12 19 -24 19 -95 1 -119 -7 -9
-11 -28 -8 -42 4 -24 2 -26 -32 -23 -50 3 -55 15 -17 47 24 21 31 35 31 63 0
29 -5 38 -22 44 -48 16 -71 10 -102 -24 -96 -105 -109 -113 -171 -102 -55 9
-77 34 -83 89 -3 37 0 58 12 76 20 30 13 48 -15 40 -10 -4 -19 -2 -19 3 0 14
23 21 36 11 6 -5 30 -10 53 -11z m-899 -77 c-10 -21 -30 -37 -30 -26 0 14 21
45 31 45 6 0 6 -7 -1 -19z m1130 -160 c0 -6 -4 -13 -10 -16 -5 -3 -10 1 -10 9
0 9 5 16 10 16 6 0 10 -4 10 -9z m-632 -70 c101 -27 192 -57 203 -66 22 -21
26 -75 5 -75 -8 0 -16 -7 -20 -15 -9 -24 -48 -18 -236 33 -173 48 -175 49
-195 85 l-20 37 25 17 c13 10 31 21 40 25 8 4 15 7 15 7 0 1 82 -21 183 -48z
m1212 -1 c0 -5 -9 -10 -21 -10 -11 0 -17 5 -14 10 3 6 13 10 21 10 8 0 14 -4
14 -10z m-466 -76 c20 -8 21 -38 1 -54 -12 -10 -18 -10 -30 0 -18 15 -20 46
-2 53 6 3 13 6 14 6 1 1 8 -2 17 -5z m-325 -19 c31 -16 41 -33 41 -72 0 -33
-60 -93 -93 -93 -49 0 -100 85 -81 135 7 18 57 44 87 45 10 0 31 -7 46 -15z
m-159 -50 c-12 -15 -30 -12 -30 6 0 5 10 9 21 9 18 0 19 -2 9 -15z m534 -39
c-6 -16 -24 -23 -24 -8 0 10 22 33 27 28 2 -2 1 -11 -3 -20z m-113 -95 c16
-16 29 -38 29 -48 0 -26 -25 -68 -38 -65 -7 1 -11 -3 -9 -10 1 -6 -13 -16 -31
-21 -35 -11 -56 -2 -32 13 9 6 17 5 22 -3 5 -8 8 -6 8 6 0 9 3 17 8 17 14 0
32 39 25 56 -6 15 -7 15 -14 -3 -4 -11 -21 -26 -39 -35 -17 -8 -31 -19 -30
-24 1 -5 -3 -10 -7 -11 -15 -5 -40 30 -47 65 -5 28 -1 38 23 63 41 40 91 40
132 0z m236 7 c-3 -8 -6 -5 -6 6 -1 11 2 17 5 13 3 -3 4 -12 1 -19z m-1140
-33 c-15 -16 -19 -13 -11 9 3 9 10 13 15 10 5 -3 3 -11 -4 -19z m87 6 c6 -9
-35 -24 -43 -15 -6 5 18 24 31 24 4 0 9 -4 12 -9z m1063 -13 c-3 -8 -6 -5 -6
6 -1 11 2 17 5 13 3 -3 4 -12 1 -19z m-997 2 c-19 -13 -30 -13 -30 0 0 6 10
10 23 10 18 0 19 -2 7 -10z m69 -11 c-22 -14 -33 -10 -19 6 7 8 17 12 22 9 6
-4 5 -10 -3 -15z m81 1 c0 -5 -2 -10 -4 -10 -2 0 -12 -3 -20 -6 -12 -5 -15 -2
-10 10 7 17 34 22 34 6z m59 -11 c-22 -14 -33 -10 -19 6 7 8 17 12 22 9 6 -4
5 -10 -3 -15z m870 -34 l0 -20 -9 20 c-5 11 -9 27 -9 35 -1 13 0 13 9 0 5 -8
9 -24 9 -35z m-72 13 c-3 -8 -6 -5 -6 6 -1 11 2 17 5 13 3 -3 4 -12 1 -19z
m102 -163 c0 -25 -2 -27 -8 -10 -5 11 -11 43 -14 70 l-6 50 14 -40 c7 -22 14
-53 14 -70z m-82 63 c-3 -7 -5 -2 -5 12 0 14 2 19 5 13 2 -7 2 -19 0 -25z
m-1265 -2 c9 -9 42 -14 100 -14 47 -1 97 -6 110 -11 14 -5 67 -10 118 -10 51
0 95 -3 98 -6 17 -17 -28 -21 -138 -12 -69 5 -163 10 -210 11 -62 1 -84 4 -82
14 1 6 -2 12 -6 12 -5 0 -17 7 -28 15 -19 14 -19 14 3 15 12 0 28 -6 35 -14z
m1148 -56 c0 -6 11 -8 26 -4 19 5 25 3 20 -4 -4 -6 2 -16 13 -22 12 -6 18 -16
15 -25 -4 -8 -1 -15 5 -15 6 0 11 -7 11 -15 0 -26 -28 -16 -35 13 l-7 27 -15
-36 c-8 -20 -24 -41 -36 -46 -21 -10 -21 -11 13 -27 19 -9 24 -13 11 -10 -16
4 -21 3 -17 -5 5 -7 -1 -11 -14 -11 -55 0 -93 55 -80 115 9 42 6 38 45 58 36
19 45 21 45 7z m500 -10 c0 -5 -9 -10 -20 -10 -11 0 -20 5 -20 10 0 6 9 10 20
10 11 0 20 -4 20 -10z m-1700 -50 c0 -5 -4 -10 -10 -10 -5 0 -10 5 -10 10 0 6
5 10 10 10 6 0 10 -4 10 -10z m71 0 c5 0 9 -4 9 -8 0 -5 -13 -7 -30 -4 -16 2
-27 9 -24 14 3 5 13 7 21 4 8 -3 19 -6 24 -6z m59 -10 c0 -5 -7 -10 -16 -10
-8 0 -12 5 -9 10 3 6 10 10 16 10 5 0 9 -4 9 -10z m85 -10 c3 -5 -1 -10 -10
-10 -9 0 -13 5 -10 10 3 6 8 10 10 10 2 0 7 -4 10 -10z m262 4 c-3 -3 -12 -4
-19 -1 -8 3 -5 6 6 6 11 1 17 -2 13 -5z m-210 -10 c-3 -3 -12 -4 -19 -1 -8 3
-5 6 6 6 11 1 17 -2 13 -5z m80 -10 c-3 -3 -12 -4 -19 -1 -8 3 -5 6 6 6 11 1
17 -2 13 -5z m170 -20 c-3 -3 -12 -4 -19 -1 -8 3 -5 6 6 6 11 1 17 -2 13 -5z
m747 -19 c-4 -8 -10 -13 -15 -10 -4 3 -6 12 -3 20 4 8 10 13 15 10 4 -3 6 -12
3 -20z m-737 -17 c-3 -8 -6 -5 -6 6 -1 11 2 17 5 13 3 -3 4 -12 1 -19z m-277
8 c0 -3 -4 -8 -10 -11 -5 -3 -10 -1 -10 4 0 6 5 11 10 11 6 0 10 -2 10 -4z
m484 -40 c-6 -15 -24 -23 -24 -11 0 8 24 34 28 30 1 -1 0 -10 -4 -19z m-632
-13 c-3 -16 -7 -22 -10 -15 -4 13 4 42 11 42 2 0 2 -12 -1 -27z m182 12 c-4
-8 -11 -15 -16 -15 -6 0 -5 6 2 15 7 8 14 15 16 15 2 0 1 -7 -2 -15z m1383 -7
c-3 -8 -6 -5 -6 6 -1 11 2 17 5 13 3 -3 4 -12 1 -19z m-1322 -26 c-15 -16 -16
-15 -4 12 7 15 15 23 17 16 3 -7 -3 -19 -13 -28z m36 -5 l-24 -22 19 27 c10
14 21 24 23 22 3 -3 -6 -15 -18 -27z m524 15 c17 -11 44 -35 60 -56 17 -20 47
-54 67 -75 47 -49 79 -112 68 -131 -7 -12 -10 -11 -16 5 -26 68 -173 245 -204
245 -20 0 -120 -98 -120 -118 0 -7 14 -18 31 -24 22 -8 27 -13 18 -19 -11 -6
-5 -17 24 -47 20 -21 34 -42 30 -46 -5 -4 -1 -6 7 -4 8 2 14 -3 13 -9 -2 -7 1
-12 6 -10 5 1 33 -19 63 -45 36 -30 70 -50 99 -56 l44 -10 -36 -1 c-25 -1 -55
11 -105 41 -72 43 -147 115 -137 132 3 5 1 6 -6 2 -6 -4 -14 0 -18 11 -3 10
-15 27 -27 38 -28 27 -46 63 -49 100 -2 26 2 30 33 35 19 4 53 19 74 33 46 32
43 32 81 9z m-939 -40 c-4 -3 -11 0 -16 8 -15 24 -11 33 6 15 9 -9 13 -19 10
-23z m1309 28 c3 -5 1 -10 -4 -10 -6 0 -11 5 -11 10 0 6 2 10 4 10 3 0 8 -4
11 -10z m-1220 -30 c3 -5 -1 -10 -10 -10 -9 0 -13 5 -10 10 3 6 8 10 10 10 2
0 7 -4 10 -10z m35 -10 c0 -5 -2 -10 -4 -10 -3 0 -8 5 -11 10 -3 6 -1 10 4 10
6 0 11 -4 11 -10z m45 0 c3 -5 1 -10 -4 -10 -6 0 -11 5 -11 10 0 6 2 10 4 10
3 0 8 -4 11 -10z m45 -10 c0 -5 -4 -10 -10 -10 -5 0 -10 5 -10 10 0 6 5 10 10
10 6 0 10 -4 10 -10z m47 -6 c-3 -3 -12 -4 -19 -1 -8 3 -5 6 6 6 11 1 17 -2
13 -5z m38 -4 c3 -5 1 -10 -4 -10 -6 0 -11 5 -11 10 0 6 2 10 4 10 3 0 8 -4
11 -10z m630 0 c3 -5 -3 -10 -14 -10 -11 0 -28 -11 -37 -26 -12 -17 -20 -22
-27 -15 -8 8 -3 18 13 36 24 26 54 33 65 15z m-588 -6 c-3 -3 -12 -4 -19 -1
-8 3 -5 6 6 6 11 1 17 -2 13 -5z m43 -4 c0 -5 -4 -10 -10 -10 -5 0 -10 5 -10
10 0 6 5 10 10 10 6 0 10 -4 10 -10z m144 -15 c-21 -16 -34 -19 -34 -7 0 8 42
30 49 25 3 -2 -4 -10 -15 -18z m-94 11 c0 -11 -19 -15 -25 -6 -3 5 1 10 9 10
9 0 16 -2 16 -4z m35 -6 c3 -5 -1 -10 -10 -10 -9 0 -13 5 -10 10 3 6 8 10 10
10 2 0 7 -4 10 -10z m505 -44 c0 -3 -4 -8 -10 -11 -5 -3 -10 -1 -10 4 0 6 5
11 10 11 6 0 10 -2 10 -4z m-36 -71 c3 -9 0 -15 -9 -15 -8 0 -15 7 -15 15 0 8
4 15 9 15 5 0 11 -7 15 -15z m207 -78 c-10 -9 -11 -8 -5 6 3 10 9 15 12 12 3
-3 0 -11 -7 -18z m10 -60 c-10 -9 -11 -8 -5 6 3 10 9 15 12 12 3 -3 0 -11 -7
-18z m-21 -27 c0 -5 -4 -10 -10 -10 -5 0 -10 5 -10 10 0 6 5 10 10 10 6 0 10
-4 10 -10z m-1621 -287 c2 -2 -16 -2 -40 -2 -24 1 -34 4 -21 6 12 2 22 9 22
15 0 6 7 5 18 -3 9 -7 19 -15 21 -16z m1770 -159 c5 -5 -30 -33 -41 -34 -5 0
-8 12 -8 26 0 22 3 24 23 18 12 -3 24 -8 26 -10z m-255 -187 c17 -12 17 -14 2
-20 -9 -4 -16 -16 -16 -27 0 -28 -30 -26 -31 3 -1 17 -3 15 -11 -10 -10 -32
-26 -41 -42 -25 -4 4 -13 7 -19 7 -7 0 -13 9 -16 20 -3 20 -3 20 17 1 27 -23
55 -14 50 16 -3 22 16 47 38 48 5 0 18 -6 28 -13z m-754 -1 c0 -11 -19 -15
-25 -6 -3 5 1 10 9 10 9 0 16 -2 16 -4z m666 -43 c-11 -11 -19 6 -11 24 8 17
8 17 12 0 3 -10 2 -21 -1 -24z m-216 7 c0 -5 -2 -10 -4 -10 -3 0 -8 5 -11 10
-3 6 -1 10 4 10 6 0 11 -4 11 -10z m-680 -10 c0 -5 -4 -10 -10 -10 -5 0 -10 5
-10 10 0 6 5 10 10 10 6 0 10 -4 10 -10z m575 0 c3 -5 1 -10 -4 -10 -6 0 -11
5 -11 10 0 6 2 10 4 10 3 0 8 -4 11 -10z m-145 -30 c0 -5 -2 -10 -4 -10 -3 0
-8 5 -11 10 -3 6 -1 10 4 10 6 0 11 -4 11 -10z m641 -70 c5 0 9 -7 9 -17 0
-14 -2 -15 -17 -1 -10 9 -23 13 -30 11 -6 -2 -16 5 -22 16 -9 15 -7 23 5 36
16 15 18 14 32 -14 8 -17 18 -31 23 -31z m-616 40 c3 -5 2 -10 -4 -10 -6 0 -8
-7 -5 -15 4 -10 0 -15 -15 -15 -20 0 -30 28 -14 43 10 10 31 8 38 -3z m150
-10 c3 -6 -1 -7 -9 -4 -18 7 -21 14 -7 14 6 0 13 -4 16 -10z m-15 -25 c10 -13
9 -15 -8 -15 -15 0 -20 5 -16 15 4 8 7 15 9 15 1 0 8 -7 15 -15z m118 -13 c6
-18 -15 -14 -22 4 -4 10 -1 14 6 12 6 -2 14 -10 16 -16z m-213 -22 c3 -5 1
-10 -4 -10 -6 0 -11 5 -11 10 0 6 2 10 4 10 3 0 8 -4 11 -10z m45 -5 c0 -8 -7
-15 -15 -15 -16 0 -20 12 -8 23 11 12 23 8 23 -8z m-260 -35 c0 -5 -9 -14 -20
-20 -17 -9 -20 -8 -20 10 0 13 7 20 20 20 11 0 20 -4 20 -10z m732 -132 c-6
-6 -15 -8 -19 -4 -4 4 -1 11 7 16 19 12 27 3 12 -12z m-242 -43 c0 -8 -7 -15
-15 -15 -26 0 -18 20 13 29 1 1 2 -6 2 -14z m180 -65 c0 -14 -13 -13 -35 4
-12 9 -16 19 -11 31 6 17 8 17 26 -3 11 -12 20 -26 20 -32z m-100 -1 c0 -24
-20 -35 -31 -18 -16 26 -11 48 11 42 11 -3 20 -14 20 -24z m-292 1 c5 -13 32
-13 32 0 0 6 5 10 10 10 6 0 10 -7 10 -16 0 -8 5 -12 11 -9 7 5 9 -4 5 -25 -6
-41 2 -60 25 -60 27 0 24 -15 -7 -35 -33 -21 -56 -6 -37 24 10 15 9 22 -1 31
-8 6 -12 20 -9 31 5 18 1 20 -46 18 -57 -3 -56 -3 -66 30 -7 23 -6 24 31 18
21 -4 40 -11 42 -17z m324 -22 c-7 -7 -12 -27 -12 -45 0 -35 -9 -40 -41 -23
-16 9 -17 14 -6 30 6 11 17 20 24 20 7 0 13 7 13 15 0 8 8 15 17 15 13 0 14
-3 5 -12z m-302 -78 c0 -5 -4 -10 -10 -10 -5 0 -10 5 -10 10 0 6 5 10 10 10 6
0 10 -4 10 -10z m-347 -37 c-7 -2 -21 -2 -30 0 -10 3 -4 5 12 5 17 0 24 -2 18
-5z m105 -18 c12 -14 26 -25 32 -25 5 0 10 -7 10 -15 0 -24 -36 -17 -48 10 -8
17 -20 25 -36 25 -18 0 -24 4 -20 15 9 23 38 18 62 -10z m232 15 c0 -5 -2 -10
-4 -10 -3 0 -8 5 -11 10 -3 6 -1 10 4 10 6 0 11 -4 11 -10z m-330 -19 c0 -5
-6 -12 -12 -15 -10 -5 -10 -7 0 -12 17 -8 15 -31 -3 -38 -9 -3 -15 0 -15 8 0
7 -7 19 -15 26 -12 10 -13 16 -4 26 13 16 49 19 49 5z m-93 -33 c-3 -8 -6 -5
-6 6 -1 11 2 17 5 13 3 -3 4 -12 1 -19z m473 12 c0 -5 -4 -10 -10 -10 -5 0
-10 5 -10 10 0 6 5 10 10 10 6 0 10 -4 10 -10z m115 0 c3 -5 1 -10 -4 -10 -6
0 -11 5 -11 10 0 6 2 10 4 10 3 0 8 -4 11 -10z"/>
<path d="M1260 3145 c1 -26 2 -28 11 -12 8 14 8 22 0 30 -8 8 -11 3 -11 -18z"/>
<path d="M1746 3174 c-9 -22 -8 -24 9 -24 8 0 15 9 15 20 0 24 -15 27 -24 4z"/>
<path d="M1810 3164 c0 -17 22 -14 28 4 2 7 -3 12 -12 12 -9 0 -16 -7 -16 -16z"/>
<path d="M1870 3165 c0 -9 5 -15 11 -13 6 2 11 8 11 13 0 5 -5 11 -11 13 -6 2
-11 -4 -11 -13z"/>
<path d="M1936 3165 c-3 -9 0 -15 9 -15 8 0 15 7 15 15 0 8 -4 15 -9 15 -5 0
-11 -7 -15 -15z"/>
<path d="M2000 3155 c0 -8 4 -15 9 -15 5 0 11 7 15 15 3 9 0 15 -9 15 -8 0
-15 -7 -15 -15z"/>
<path d="M2060 3154 c0 -17 22 -14 28 4 2 7 -3 12 -12 12 -9 0 -16 -7 -16 -16z"/>
<path d="M1667 2783 c-12 -11 -8 -23 8 -23 8 0 15 7 15 15 0 16 -12 20 -23 8z"/>
<path d="M1733 2775 c-3 -9 -3 -18 0 -21 9 -9 27 6 27 22 0 19 -19 18 -27 -1z"/>
<path d="M1802 2777 c-9 -11 -10 -17 -2 -22 15 -9 23 -1 18 21 -3 15 -4 16
-16 1z"/>
<path d="M1867 2774 c-8 -8 1 -24 14 -24 5 0 9 7 9 15 0 15 -12 20 -23 9z"/>
<path d="M1930 2761 c0 -17 18 -21 24 -6 3 9 0 15 -9 15 -8 0 -15 -4 -15 -9z"/>
<path d="M1997 2763 c-12 -11 -8 -23 8 -23 8 0 15 7 15 15 0 16 -12 20 -23 8z"/>
<path d="M1600 2410 c0 -19 3 -21 12 -12 9 9 9 15 0 24 -9 9 -12 7 -12 -12z"/>
<path d="M1665 2400 c-4 -6 -3 -16 3 -22 6 -6 12 -6 17 2 4 6 3 16 -3 22 -6 6
-12 6 -17 -2z"/>
<path d="M1730 2375 c0 -8 5 -15 10 -15 6 0 10 7 10 15 0 8 -4 15 -10 15 -5 0
-10 -7 -10 -15z"/>
<path d="M1797 2364 c-8 -8 1 -24 14 -24 5 0 9 7 9 15 0 15 -12 20 -23 9z"/>
<path d="M1865 2340 c-3 -5 1 -10 10 -10 9 0 13 5 10 10 -3 6 -8 10 -10 10 -2
0 -7 -4 -10 -10z"/>
<path d="M1930 2320 c0 -5 7 -10 16 -10 8 0 12 5 9 10 -3 6 -10 10 -16 10 -5
0 -9 -4 -9 -10z"/>
<path d="M2197 2288 c4 -20 -2 -34 -21 -53 -30 -30 -32 -35 -12 -35 16 0 56
46 56 64 0 7 -6 21 -14 31 -13 18 -14 18 -9 -7z"/>
<path d="M1510 4665 c-7 -9 -11 -17 -9 -20 3 -2 10 5 17 15 14 24 10 26 -8 5z"/>
<path d="M2710 4549 c0 -5 5 -7 10 -4 6 3 10 8 10 11 0 2 -4 4 -10 4 -5 0 -10
-5 -10 -11z"/>
<path d="M2721 4509 c22 -22 35 -20 26 6 -4 8 -16 15 -27 15 -20 0 -20 0 1
-21z"/>
<path d="M2787 4503 c-13 -12 -7 -23 12 -23 26 0 35 16 15 24 -19 7 -19 7 -27
-1z"/>
<path d="M2670 4426 c0 -9 5 -16 10 -16 6 0 10 4 10 9 0 6 -4 13 -10 16 -5 3
-10 -1 -10 -9z"/>
<path d="M2790 4410 c0 -5 7 -10 15 -10 8 0 15 5 15 10 0 6 -7 10 -15 10 -8 0
-15 -4 -15 -10z"/>
<path d="M2933 4398 c-34 -16 -28 -31 10 -23 38 9 41 11 32 24 -8 13 -13 13
-42 -1z"/>
<path d="M2653 4393 c-7 -3 -13 -9 -13 -14 0 -12 37 -12 44 0 7 11 -14 20 -31
14z"/>
<path d="M2849 4357 c-9 -7 -14 -18 -11 -25 2 -7 -6 -22 -19 -32 -12 -11 -17
-20 -11 -20 6 0 14 4 17 10 3 5 21 9 38 7 23 -1 31 2 29 12 -2 8 3 18 10 22 7
4 9 12 4 16 -5 4 -11 2 -13 -4 -3 -7 -9 -13 -15 -13 -6 0 -8 7 -5 15 8 20 -5
26 -24 12z"/>
<path d="M2644 4348 c-7 -11 36 -30 53 -23 9 3 21 0 26 -7 6 -9 7 -8 3 5 -3
11 0 17 9 17 8 0 15 5 15 10 0 14 -13 13 -28 -2 -9 -9 -15 -9 -20 -2 -8 12
-51 14 -58 2z"/>
<path d="M2765 4310 c20 -23 29 -21 19 4 -3 9 -13 16 -22 16 -13 0 -12 -3 3
-20z"/>
<path d="M3077 4319 c7 -7 15 -10 18 -7 3 3 -2 9 -12 12 -14 6 -15 5 -6 -5z"/>
<path d="M2645 4280 c3 -5 20 -10 36 -10 18 0 28 4 24 10 -3 6 -20 10 -36 10
-18 0 -28 -4 -24 -10z"/>
<path d="M2950 4276 c0 -9 7 -12 20 -9 11 3 20 9 20 14 0 5 -9 9 -20 9 -11 0
-20 -6 -20 -14z"/>
<path d="M3067 4283 c-4 -6 3 -20 15 -33 15 -16 23 -19 26 -11 5 16 -33 57
-41 44z"/>
<path d="M3170 4250 c0 -5 4 -10 9 -10 6 0 13 5 16 10 3 6 -1 10 -9 10 -9 0
-16 -4 -16 -10z"/>
<path d="M2930 4240 c0 -5 5 -10 10 -10 6 0 10 5 10 10 0 6 -4 10 -10 10 -5 0
-10 -4 -10 -10z"/>
<path d="M2586 4231 c-4 -5 -2 -12 3 -15 5 -4 12 -2 15 3 4 5 2 12 -3 15 -5 4
-12 2 -15 -3z"/>
<path d="M2585 4191 c-3 -5 -1 -12 5 -16 5 -3 10 1 10 9 0 18 -6 21 -15 7z"/>
<path d="M2890 4180 c0 -5 5 -10 10 -10 6 0 10 5 10 10 0 6 -4 10 -10 10 -5 0
-10 -4 -10 -10z"/>
<path d="M2633 4163 c-4 -9 -1 -19 5 -21 16 -5 15 -33 0 -31 -7 1 -20 1 -28 0
-13 -1 -13 -2 0 -11 13 -8 12 -10 -2 -10 -10 0 -18 -4 -18 -8 0 -4 9 -8 20 -8
11 0 20 6 20 14 0 9 7 11 20 7 18 -6 20 -3 15 17 -3 13 -7 33 -8 46 -2 26 -15
29 -24 5z"/>
<path d="M2920 4160 c0 -5 5 -10 10 -10 6 0 10 5 10 10 0 6 -4 10 -10 10 -5 0
-10 -4 -10 -10z"/>
<path d="M2980 4150 c0 -5 7 -10 15 -10 8 0 15 5 15 10 0 6 -7 10 -15 10 -8 0
-15 -4 -15 -10z"/>
<path d="M3070 4140 c0 -11 14 -11 50 0 22 7 21 8 -12 9 -21 1 -38 -3 -38 -9z"/>
<path d="M3150 4131 c0 -6 5 -13 10 -16 6 -3 10 1 10 9 0 9 -4 16 -10 16 -5 0
-10 -4 -10 -9z"/>
<path d="M2800 4120 c0 -5 7 -10 16 -10 8 0 12 5 9 10 -3 6 -10 10 -16 10 -5
0 -9 -4 -9 -10z"/>
<path d="M3086 4104 c-4 -9 -4 -19 -1 -22 2 -3 7 3 11 12 4 9 4 19 1 22 -2 3
-7 -3 -11 -12z"/>
<path d="M2882 4085 c1 -14 8 -25 15 -25 7 0 13 11 13 25 0 15 -6 25 -15 25
-10 0 -14 -9 -13 -25z"/>
<path d="M2978 4103 c7 -3 16 -2 19 1 4 3 -2 6 -13 5 -11 0 -14 -3 -6 -6z"/>
<path d="M2788 4093 c7 -3 16 -2 19 1 4 3 -2 6 -13 5 -11 0 -14 -3 -6 -6z"/>
<path d="M2947 4084 c-9 -10 2 -24 19 -24 8 0 14 7 14 15 0 15 -21 21 -33 9z"/>
<path d="M2693 4043 c-7 -2 -13 -11 -13 -19 0 -7 -9 -19 -20 -26 -24 -15 -26
-28 -5 -28 8 0 15 -4 15 -10 0 -5 -4 -10 -10 -10 -5 0 -10 -4 -10 -10 0 -16
30 -12 36 5 4 8 12 15 20 15 8 0 11 6 8 15 -4 8 -1 15 5 15 6 0 11 -6 11 -12
0 -9 3 -9 9 1 8 12 15 11 50 -3 48 -19 51 -19 51 -7 0 5 -10 11 -22 13 -30 4
-36 28 -6 28 43 0 52 16 18 30 -25 10 -37 11 -51 2 -23 -15 -73 -16 -64 -2 7
11 -2 12 -22 3z"/>
<path d="M2970 4015 c-7 -9 -10 -18 -7 -21 3 -3 10 4 17 15 13 25 8 27 -10 6z"/>
<path d="M2906 3953 c-12 -12 -5 -23 14 -23 11 0 20 4 20 9 0 11 -26 22 -34
14z"/>
<path d="M3050 3952 c0 -12 39 -46 45 -41 6 7 -24 49 -36 49 -5 0 -9 -4 -9 -8z"/>
<path d="M3030 3926 c0 -9 5 -16 10 -16 6 0 10 4 10 9 0 6 -4 13 -10 16 -5 3
-10 -1 -10 -9z"/>
<path d="M3295 3930 c3 -5 8 -10 11 -10 2 0 4 5 4 10 0 6 -5 10 -11 10 -5 0
-7 -4 -4 -10z"/>
<path d="M2595 3920 c-3 -5 1 -10 9 -10 9 0 16 5 16 10 0 6 -4 10 -9 10 -6 0
-13 -4 -16 -10z"/>
<path d="M3140 3922 c0 -17 21 -25 31 -13 5 6 6 9 3 6 -4 -3 -13 0 -21 6 -9 8
-13 8 -13 1z"/>
<path d="M2930 3910 c-12 -8 -10 -10 8 -10 13 0 20 4 17 10 -7 12 -6 12 -25 0z"/>
<path d="M2844 3902 c-6 -4 -8 -16 -4 -27 7 -19 7 -19 18 2 18 33 12 43 -14
25z"/>
<path d="M2875 3850 c-3 -6 1 -7 9 -4 18 7 21 14 7 14 -6 0 -13 -4 -16 -10z"/>
<path d="M2650 3805 c0 -8 7 -15 15 -15 8 0 15 7 15 15 0 8 -7 15 -15 15 -8 0
-15 -7 -15 -15z"/>
<path d="M2850 3800 c0 -5 7 -7 15 -4 8 4 15 8 15 10 0 2 -7 4 -15 4 -8 0 -15
-4 -15 -10z"/>
<path d="M999 3782 c-39 -41 -269 -408 -269 -429 0 -7 -4 -13 -8 -13 -4 0 -16
-13 -25 -30 -10 -16 -14 -30 -9 -30 14 0 1 -51 -18 -70 -13 -13 -21 -15 -29
-7 -6 6 -12 8 -12 4 -2 -8 -5 -23 -9 -34 -6 -22 3 -99 13 -105 6 -4 8 -11 3
-15 -5 -4 -11 -2 -13 5 -3 6 -13 12 -24 12 -21 0 -25 10 -9 26 6 6 8 18 4 27
-5 13 -16 3 -48 -45 -23 -35 -47 -76 -54 -92 -12 -26 -11 -28 7 -23 10 2 25 1
32 -4 11 -7 11 -9 1 -9 -7 0 -10 -4 -7 -10 3 -5 21 -10 38 -10 46 0 63 -13 43
-33 -9 -9 -13 -23 -9 -33 5 -14 2 -16 -20 -10 -24 6 -27 3 -28 -19 -1 -14 -2
-31 -3 -37 -2 -22 31 -20 37 2 6 22 23 25 47 10 13 -8 13 -11 1 -19 -7 -5 -11
-13 -7 -19 7 -12 -19 -23 -39 -16 -17 7 -21 -11 -5 -21 6 -3 10 -12 10 -18 0
-7 -7 -4 -14 6 -19 24 -29 21 -24 -8 5 -21 2 -25 -13 -20 -13 4 -19 1 -19 -8
0 -8 -7 -18 -16 -21 -14 -5 -14 -7 0 -22 9 -8 16 -18 16 -20 0 -7 -42 16 -63
34 -16 15 -16 17 5 39 21 23 13 34 -10 11 -15 -15 -67 6 -56 23 4 8 9 7 16 -2
7 -11 8 -9 4 4 -3 10 -6 21 -6 23 0 2 -7 4 -17 4 -14 0 -14 2 3 21 10 11 31
28 45 36 25 15 30 43 7 43 -6 0 -8 -7 -4 -15 3 -8 1 -15 -5 -15 -6 0 -17 -7
-26 -16 -9 -8 -22 -13 -29 -10 -9 3 -16 -4 -20 -19 -3 -14 -10 -25 -16 -25 -5
0 -7 -9 -3 -20 3 -11 3 -40 0 -64 -6 -37 -12 -47 -36 -56 -20 -9 -32 -23 -39
-49 -13 -49 -13 -51 10 -51 15 0 20 -7 20 -25 0 -38 27 -31 34 9 5 28 12 36
36 41 16 3 34 12 40 20 12 15 80 9 91 -7 3 -6 9 -9 13 -9 23 3 46 0 46 -6 0
-17 -52 -32 -76 -23 -16 7 -24 6 -24 -1 0 -6 -9 -9 -20 -6 -13 3 -20 0 -20 -9
0 -8 -7 -14 -16 -14 -8 0 -12 -4 -9 -10 3 -5 16 -10 28 -10 20 0 20 0 1 -15
-16 -13 -17 -16 -4 -25 31 -20 42 -12 38 28 -3 36 -2 38 23 34 15 -2 30 1 33
7 12 19 36 12 36 -11 1 -33 34 -73 54 -65 9 4 16 2 16 -3 0 -6 -4 -10 -10 -10
-5 0 -10 -11 -10 -25 0 -17 -7 -28 -22 -34 -20 -8 -21 -10 -6 -16 10 -4 18
-13 18 -21 0 -19 -16 -18 -24 2 -4 10 -13 13 -27 9 -15 -5 -22 -2 -26 13 -3
14 -11 18 -26 16 -12 -2 -16 -2 -9 2 22 11 12 24 -18 24 -17 0 -30 5 -30 12 0
14 -41 -28 -55 -57 -6 -11 -23 -21 -38 -23 -16 -2 -31 -10 -34 -18 -3 -7 -9
-11 -14 -8 -15 9 -10 22 11 29 30 9 24 27 -7 23 -25 -3 -28 -7 -31 -46 -3 -41
-2 -42 17 -30 16 10 27 10 51 1 26 -10 30 -9 30 6 0 24 7 29 35 23 14 -2 25
-11 25 -19 0 -19 62 -14 68 6 3 10 -3 12 -29 6 l-34 -7 26 27 26 27 31 -31
c17 -17 26 -31 20 -31 -6 0 -8 -9 -5 -19 3 -15 -1 -21 -17 -23 -19 -3 -19 -5
9 -20 l30 -17 -42 -1 c-32 0 -43 -4 -43 -16 0 -11 6 -14 23 -8 l22 7 -20 -23
-20 -23 37 7 c52 9 60 -10 18 -45 -18 -16 -38 -25 -43 -22 -6 4 -3 11 6 18 23
17 21 23 -8 23 -22 0 -25 -5 -25 -34 0 -28 -5 -36 -26 -44 -33 -13 -34 -13
-34 4 0 7 10 16 22 19 17 5 19 9 9 20 -6 8 -10 21 -8 28 2 8 2 11 0 8 -11 -19
-72 17 -74 43 0 7 -9 -5 -20 -27 -10 -22 -19 -35 -19 -28 0 7 -7 10 -15 7 -9
-4 -15 0 -15 10 0 9 5 16 11 16 6 0 8 7 5 17 -5 11 4 26 24 45 28 25 30 30 16
43 -19 19 -26 19 -41 -1 -10 -14 -15 -15 -36 -4 -13 7 -31 21 -39 31 -14 17
-18 18 -35 5 -23 -16 -27 -67 -5 -74 9 -3 11 1 7 11 -4 11 -2 14 9 10 13 -5
13 -8 -2 -24 -9 -10 -21 -17 -26 -16 -6 1 -13 -4 -16 -12 -2 -8 0 -11 6 -8 12
8 36 -19 28 -32 -4 -5 -2 -12 4 -16 5 -3 10 3 10 14 0 12 3 22 8 22 58 9 57
10 59 -37 1 -25 6 -51 12 -58 14 -17 3 -27 -23 -20 -12 3 -33 1 -46 -5 -24 -9
-24 -10 -3 -10 32 -1 40 -22 15 -39 -16 -11 -22 -25 -22 -53 0 -22 -4 -39 -10
-39 -5 0 -10 4 -10 10 0 5 -7 7 -16 3 -15 -5 -16 -1 -10 31 6 30 4 41 -11 52
-10 8 -13 14 -8 13 30 -4 45 3 45 20 0 11 4 23 10 26 5 3 10 15 10 25 0 17 -4
18 -25 10 -25 -10 -42 1 -30 20 3 6 -1 10 -9 10 -22 0 -28 -17 -11 -33 20 -21
19 -57 -3 -85 -15 -19 -24 -22 -46 -16 -16 4 -31 15 -34 26 -5 20 -28 20 -26
0 1 -7 2 -21 3 -32 1 -13 6 -17 17 -13 21 8 15 -28 -8 -45 -12 -9 -18 -27 -18
-53 0 -32 4 -39 19 -39 16 0 19 6 15 33 -5 43 24 48 33 5 9 -46 23 -32 23 23
0 36 4 49 13 46 6 -2 11 -10 9 -16 -1 -6 5 -11 13 -11 8 0 15 -7 15 -15 0 -16
12 -18 47 -9 13 4 23 13 23 21 0 12 8 14 33 9 l33 -6 -4 40 c-2 22 -8 40 -13
40 -5 0 -9 9 -9 21 0 11 4 18 9 15 11 -7 71 22 71 34 0 5 -6 11 -12 13 -8 3
-5 6 5 6 10 1 16 5 12 10 -3 5 0 13 6 17 14 8 29 -14 22 -33 -3 -7 0 -13 7
-13 7 0 9 -9 6 -22 -3 -13 -3 -17 0 -10 5 10 9 9 18 -4 15 -20 76 -11 76 12 0
8 7 14 15 14 8 0 15 7 15 15 0 8 5 15 10 15 6 0 10 -10 10 -23 0 -13 5 -28 11
-34 9 -9 8 -16 -5 -28 -9 -9 -16 -21 -16 -26 0 -5 -5 -9 -11 -9 -7 0 -9 10 -5
25 5 20 3 25 -13 25 -11 0 -23 -5 -26 -10 -4 -6 -11 -8 -16 -5 -24 15 -5 -19
26 -46 46 -41 47 -76 2 -104 -18 -11 -32 -29 -33 -40 -1 -11 -2 -32 -3 -47 0
-18 -7 -28 -16 -28 -16 0 -20 -12 -8 -23 3 -4 12 -2 20 5 17 13 19 11 27 -29
6 -26 4 -32 -13 -38 -32 -10 -45 4 -25 26 21 23 16 24 -24 3 -33 -16 -42 -34
-18 -34 7 0 20 -7 27 -16 11 -14 11 -18 -4 -29 -9 -7 -17 -21 -17 -31 0 -10
-11 -27 -25 -39 -14 -11 -27 -30 -28 -42 -1 -21 -2 -21 -29 -5 -32 19 -39 15
-31 -17 4 -17 8 -19 14 -9 6 9 9 4 9 -14 0 -29 -15 -38 -23 -15 -4 10 -7 10
-18 0 -7 -7 -26 -13 -41 -13 -15 0 -28 -4 -28 -10 0 -5 9 -10 19 -10 20 0 41
-44 41 -86 0 -21 -3 -23 -32 -17 -42 7 -40 6 -30 34 12 34 5 56 -21 64 -12 4
-25 7 -29 6 -15 -2 -8 16 12 34 11 10 20 13 20 7 0 -7 5 -12 10 -12 6 0 10 9
10 21 0 15 -5 19 -15 15 -12 -4 -15 2 -15 28 0 29 -3 33 -20 29 -11 -3 -20 -1
-20 5 0 5 9 12 20 15 11 3 20 1 20 -4 0 -5 9 -9 20 -9 27 0 29 50 3 50 -17 1
-17 2 0 14 12 10 15 16 7 21 -8 5 -7 11 2 22 10 12 9 18 -7 29 -25 18 -39 18
-31 -2 5 -12 1 -14 -16 -9 -22 7 -22 -1 -4 -46 5 -12 1 -18 -18 -21 -20 -4
-26 -1 -28 16 -4 28 -32 27 -36 -1 -2 -13 -10 -23 -17 -23 -8 0 -17 -5 -21
-12 -4 -6 -3 -8 4 -4 6 3 14 1 18 -5 4 -6 -1 -16 -10 -21 -9 -5 -16 -20 -16
-34 0 -14 4 -23 8 -20 5 3 17 -5 27 -17 l19 -22 6 25 c4 18 15 26 38 31 18 4
35 2 38 -3 7 -11 -16 -29 -27 -22 -4 2 -16 -7 -27 -21 -12 -15 -23 -21 -27
-15 -3 5 -18 10 -32 10 -21 0 -24 -3 -19 -22 3 -13 6 -27 6 -31 0 -5 9 -6 19
-2 11 3 22 1 26 -5 3 -5 1 -10 -4 -10 -6 0 -11 -7 -11 -15 0 -8 -7 -15 -15
-15 -13 0 -13 -3 -3 -22 7 -12 21 -31 30 -42 19 -21 24 -46 9 -46 -5 0 -12 6
-15 13 -5 9 -7 9 -12 0 -3 -7 -12 -13 -20 -13 -27 0 -14 -18 17 -24 27 -5 30
-8 19 -21 -7 -9 -21 -13 -31 -10 -17 6 -19 1 -19 -42 0 -27 5 -54 11 -60 8 -8
8 -17 0 -31 -24 -45 -14 -70 44 -107 30 -19 57 -35 60 -35 3 0 5 11 5 25 0 29
8 32 26 8 17 -23 18 -56 2 -48 -7 4 1 -5 17 -19 36 -31 45 -32 45 -7 0 18 27
37 38 26 4 -3 1 -19 -5 -35 -9 -23 -8 -32 3 -41 21 -18 126 -79 134 -79 5 0
16 -7 25 -16 15 -15 15 -14 9 12 -4 16 -12 32 -18 36 -6 5 -1 8 12 8 18 0 22
4 18 25 -3 14 -1 23 4 20 20 -13 38 37 33 91 -4 36 -2 59 7 69 8 10 9 15 1 15
-6 0 -11 -5 -11 -11 0 -6 -6 -9 -14 -6 -20 8 -28 -4 -13 -17 7 -6 10 -10 8 -9
-2 2 -10 -2 -17 -8 -8 -7 -14 -7 -19 1 -3 5 -1 10 5 10 6 0 9 4 6 9 -9 14 4
41 19 41 13 0 26 45 16 56 -3 3 -6 24 -6 47 0 33 -4 42 -19 45 -15 3 -17 0
-11 -14 5 -11 10 -35 13 -55 5 -45 -17 -69 -61 -68 l-32 2 37 10 c35 10 57 40
37 53 -14 8 -5 94 11 105 10 6 -3 7 -39 3 -40 -5 -52 -4 -47 5 4 6 15 11 26
11 16 0 29 17 36 47 3 17 -23 36 -37 27 -8 -4 -9 -3 -5 4 4 6 23 14 42 18 24
4 32 10 25 17 -7 7 -15 6 -24 -2 -12 -9 -16 -8 -21 5 -9 23 -8 24 17 34 17 8
11 9 -28 6 -45 -4 -47 -4 -22 6 18 8 28 20 29 37 2 33 6 73 7 86 1 6 5 4 10
-4 8 -12 14 -12 41 1 19 9 28 18 21 22 -6 4 -11 4 -11 0 0 -3 -7 -1 -15 6 -8
7 -12 17 -9 22 4 6 10 5 15 -3 7 -11 9 -11 9 -1 0 7 4 11 9 8 5 -3 11 4 14 15
4 16 11 19 26 14 22 -7 50 12 44 30 -2 6 16 30 38 54 38 40 41 47 36 85 -3 22
-9 52 -13 66 -12 44 -11 194 3 240 7 25 13 58 13 73 0 16 9 65 21 110 12 45
25 105 30 132 4 28 11 66 14 85 9 49 24 77 45 83 16 4 18 17 19 96 0 50 4 99
10 109 5 10 9 58 9 107 0 117 16 239 40 295 10 25 24 77 32 117 7 40 17 70 22
67 4 -3 8 2 8 11 0 8 4 23 9 33 5 9 19 49 31 87 12 39 28 77 35 85 7 8 16 35
20 60 7 52 21 103 40 145 13 30 28 86 23 84 -2 0 -10 -8 -19 -17z m-378 -762
c5 0 9 5 9 10 0 6 5 10 10 10 6 0 10 -9 10 -20 0 -11 -5 -20 -11 -20 -7 0 -9
-10 -7 -24 3 -16 1 -23 -7 -19 -7 2 -16 18 -19 36 -5 24 -9 28 -18 19 -24 -24
-31 -11 -7 14 19 21 25 23 27 10 2 -9 8 -16 13 -16z m19 -160 c0 -5 -4 -10
-10 -10 -5 0 -10 5 -10 10 0 6 5 10 10 10 6 0 10 -4 10 -10z m-10 -218 c0 -20
-18 -42 -34 -42 -6 0 -5 5 2 12 7 7 12 20 12 30 0 10 5 18 10 18 6 0 10 -8 10
-18z m-138 -37 c0 -5 -5 -11 -11 -13 -6 -2 -11 4 -11 13 0 9 5 15 11 13 6 -2
11 -8 11 -13z m88 -5 c0 -11 -7 -20 -15 -20 -18 0 -19 6 -2 25 16 19 17 18 17
-5z m30 -30 c0 -5 -8 -10 -17 -10 -15 0 -16 2 -3 10 19 12 20 12 20 0z m-178
-242 c-9 -9 -12 -7 -12 12 0 19 3 21 12 12 9 -9 9 -15 0 -24z m54 -543 c-3 -9
-11 -13 -16 -10 -8 5 -7 11 1 21 14 18 24 11 15 -11z m-429 -297 c-3 -7 -5 -2
-5 12 0 14 2 19 5 13 2 -7 2 -19 0 -25z m210 -170 c-3 -7 -5 -2 -5 12 0 14 2
19 5 13 2 -7 2 -19 0 -25z m-165 -30 c2 -13 2 -31 0 -40 -3 -15 -6 -14 -28 7
-27 27 -30 41 -11 48 25 11 35 6 39 -15z m211 -125 c-7 -2 -19 -2 -25 0 -7 3
-2 5 12 5 14 0 19 -2 13 -5z m-79 -25 c22 -31 20 -40 -6 -36 -17 2 -24 11 -26
31 -4 33 11 35 32 5z m14 -170 c7 -7 12 -18 12 -25 0 -18 -29 -16 -36 2 -4 8
-9 13 -13 10 -4 -2 -8 2 -8 10 0 18 28 20 45 3z m117 -18 c3 -5 1 -10 -4 -10
-6 0 -11 5 -11 10 0 6 2 10 4 10 3 0 8 -4 11 -10z m75 -115 c0 -9 -9 -15 -24
-15 -13 0 -32 -3 -42 -7 -12 -4 -15 -2 -12 8 4 12 28 21 71 28 4 0 7 -6 7 -14z"/>
<path d="M2557 3794 c-8 -8 1 -24 14 -24 5 0 9 7 9 15 0 15 -12 20 -23 9z"/>
<path d="M2890 3750 c-13 -9 -13 -11 0 -20 10 -6 16 -6 18 0 7 20 -3 30 -18
20z"/>
<path d="M3145 3710 c-3 -5 1 -10 9 -10 9 0 16 5 16 10 0 6 -4 10 -9 10 -6 0
-13 -4 -16 -10z"/>
<path d="M3200 3710 c0 -5 5 -10 10 -10 6 0 10 5 10 10 0 6 -4 10 -10 10 -5 0
-10 -4 -10 -10z"/>
<path d="M2573 3664 c-3 -8 -1 -20 6 -27 8 -8 11 -4 11 16 0 30 -7 35 -17 11z"/>
<path d="M2648 3653 c7 -3 16 -2 19 1 4 3 -2 6 -13 5 -11 0 -14 -3 -6 -6z"/>
<path d="M3340 3485 c0 -9 5 -15 11 -13 6 2 11 8 11 13 0 5 -5 11 -11 13 -6 2
-11 -4 -11 -13z"/>
<path d="M3305 3390 c-3 -5 -1 -10 4 -10 6 0 11 5 11 10 0 6 -2 10 -4 10 -3 0
-8 -4 -11 -10z"/>
<path d="M3130 3129 c0 -5 5 -7 10 -4 6 3 10 8 10 11 0 2 -4 4 -10 4 -5 0 -10
-5 -10 -11z"/>
<path d="M3347 3014 c-13 -13 -7 -24 14 -24 11 0 19 5 17 12 -5 14 -22 21 -31
12z"/>
<path d="M3736 2975 c4 -8 11 -15 16 -15 6 0 5 6 -2 15 -7 8 -14 15 -16 15 -2
0 -1 -7 2 -15z"/>
<path d="M3656 2953 c-11 -11 -6 -23 8 -23 8 0 17 4 20 9 7 10 -19 23 -28 14z"/>
<path d="M3015 2930 c-3 -5 -1 -10 4 -10 6 0 11 5 11 10 0 6 -2 10 -4 10 -3 0
-8 -4 -11 -10z"/>
<path d="M422 2877 c-6 -7 -7 -18 -3 -26 7 -10 10 -8 16 8 8 27 2 36 -13 18z"/>
<path d="M530 2880 c0 -5 7 -10 16 -10 8 0 12 5 9 10 -3 6 -10 10 -16 10 -5 0
-9 -4 -9 -10z"/>
<path d="M2965 2880 c-3 -5 -1 -10 4 -10 6 0 11 5 11 10 0 6 -2 10 -4 10 -3 0
-8 -4 -11 -10z"/>
<path d="M490 2829 c0 -5 5 -7 10 -4 6 3 10 8 10 11 0 2 -4 4 -10 4 -5 0 -10
-5 -10 -11z"/>
<path d="M2985 2820 c-3 -5 1 -10 9 -10 9 0 16 5 16 10 0 6 -4 10 -9 10 -6 0
-13 -4 -16 -10z"/>
<path d="M3775 2800 c3 -5 8 -10 11 -10 2 0 4 5 4 10 0 6 -5 10 -11 10 -5 0
-7 -4 -4 -10z"/>
<path d="M3425 2789 c-12 -19 5 -23 22 -6 16 16 16 17 1 17 -9 0 -20 -5 -23
-11z"/>
<path d="M505 2780 c-3 -5 -1 -10 4 -10 6 0 11 5 11 10 0 6 -2 10 -4 10 -3 0
-8 -4 -11 -10z"/>
<path d="M2980 2726 c0 -2 7 -9 15 -16 9 -7 15 -8 15 -2 0 5 -7 12 -15 16 -8
3 -15 4 -15 2z"/>
<path d="M296 2679 c-15 -22 -25 -43 -21 -47 4 -4 10 -1 12 6 3 7 14 21 25 32
11 10 18 25 16 33 -2 11 -12 3 -32 -24z"/>
<path d="M3052 2691 c2 -7 7 -12 11 -12 12 1 9 15 -3 20 -7 2 -11 -2 -8 -8z"/>
<path d="M3665 2670 c-3 -5 -1 -10 4 -10 6 0 11 5 11 10 0 6 -2 10 -4 10 -3 0
-8 -4 -11 -10z"/>
<path d="M2945 2620 c-4 -6 6 -7 27 -3 44 8 48 13 10 13 -17 0 -34 -4 -37 -10z"/>
<path d="M3765 2620 c-3 -5 -1 -10 4 -10 6 0 11 5 11 10 0 6 -2 10 -4 10 -3 0
-8 -4 -11 -10z"/>
<path d="M3145 2610 c3 -5 10 -10 16 -10 5 0 9 5 9 10 0 6 -7 10 -16 10 -8 0
-12 -4 -9 -10z"/>
<path d="M3670 2582 c0 -5 9 -12 21 -15 13 -3 19 -1 16 6 -5 15 -37 22 -37 9z"/>
<path d="M210 2549 c-14 -24 -4 -40 11 -19 9 12 10 12 5 -2 -3 -10 -1 -18 4
-18 5 0 8 13 7 30 -2 35 -12 38 -27 9z"/>
<path d="M2980 2550 c0 -5 7 -10 16 -10 8 0 12 5 9 10 -3 6 -10 10 -16 10 -5
0 -9 -4 -9 -10z"/>
<path d="M3420 2530 c0 -13 5 -20 13 -17 6 2 12 10 12 17 0 7 -6 15 -12 18 -8
2 -13 -5 -13 -18z"/>
<path d="M170 2488 c-20 -33 -20 -45 -1 -33 6 3 11 16 12 28 0 12 3 16 6 10 2
-7 11 -13 19 -13 17 0 18 -11 2 -45 -8 -18 -19 -25 -40 -25 -17 0 -28 -5 -28
-13 0 -8 -10 -22 -21 -33 -22 -19 -22 -19 -15 6 3 15 -1 11 -10 -10 -9 -19
-22 -39 -30 -43 -17 -10 -18 -33 -3 -43 8 -4 9 1 4 17 -3 13 -3 19 2 13 17
-23 42 -23 58 -1 15 21 15 21 15 -8 0 -22 3 -26 9 -16 5 8 7 20 4 28 -3 7 0
13 6 13 6 0 11 -4 11 -9 0 -5 9 -11 21 -14 15 -4 19 -2 15 8 -3 8 2 21 10 30
14 13 11 15 -32 15 -47 0 -47 0 -29 20 10 12 24 19 31 16 19 -7 46 28 38 50
-6 16 -5 17 7 7 19 -19 29 -16 29 8 0 23 -14 40 -48 58 -20 10 -24 8 -42 -21z"/>
<path d="M350 2490 c9 -17 6 -23 -25 -41 -48 -29 -37 -35 17 -10 23 11 38 20
31 21 -6 0 -9 8 -6 19 3 11 -2 21 -11 24 -14 6 -15 3 -6 -13z"/>
<path d="M487 2439 c-10 -11 -15 -24 -12 -27 4 -4 12 0 18 9 7 9 18 14 26 11
8 -3 12 1 9 9 -7 21 -22 21 -41 -2z"/>
<path d="M298 2412 c-22 -4 -22 -11 -3 -36 13 -17 15 -17 21 -3 9 25 1 43 -18
39z"/>
<path d="M360 2400 c0 -5 4 -10 9 -10 6 0 13 5 16 10 3 6 -1 10 -9 10 -9 0
-16 -4 -16 -10z"/>
<path d="M3133 2383 c-20 -7 -46 -71 -38 -90 6 -17 7 -17 16 0 6 9 17 17 24
17 10 0 15 10 15 28 0 21 -2 24 -10 12 -8 -13 -10 -12 -10 3 0 10 8 17 20 17
11 0 20 5 20 10 0 10 -16 12 -37 3z"/>
<path d="M3480 2369 c0 -5 5 -7 10 -4 6 3 10 8 10 11 0 2 -4 4 -10 4 -5 0 -10
-5 -10 -11z"/>
<path d="M3669 2150 c-491 -760 -1162 -1826 -1162 -1847 0 -6 -6 -14 -14 -17
-7 -3 -13 -12 -13 -21 0 -9 -11 -27 -25 -39 l-26 -24 36 0 c19 0 35 3 35 7 0
4 23 14 50 21 28 7 50 17 50 22 0 4 18 8 40 8 30 0 40 4 40 16 0 20 24 44 44
44 9 0 16 5 16 10 0 6 37 10 90 10 53 0 90 4 90 10 0 6 40 10 100 10 93 0 100
-1 100 -20 0 -17 7 -20 40 -20 33 0 40 -3 40 -20 0 -17 7 -20 40 -20 l40 0 0
60 0 60 40 0 c33 0 40 3 40 20 0 18 7 20 80 20 l80 0 0 -40 0 -40 -40 0 -40 0
0 -40 c0 -38 -2 -40 -30 -40 l-30 0 0 -120 c0 -73 -4 -120 -10 -120 -5 0 -10
-9 -10 -20 0 -19 7 -20 214 -20 l215 0 3 53 c2 28 -1 140 -5 247 -12 294 -2
956 16 1060 19 110 22 796 4 910 l-12 75 -126 -195z"/>
<path d="M236 2285 c4 -8 8 -15 10 -15 2 0 4 7 4 15 0 8 -4 15 -10 15 -5 0 -7
-7 -4 -15z"/>
<path d="M3585 2280 c-3 -5 3 -10 14 -10 12 0 21 5 21 10 0 6 -6 10 -14 10 -8
0 -18 -4 -21 -10z"/>
<path d="M35 2260 c3 -5 8 -10 11 -10 2 0 4 5 4 10 0 6 -5 10 -11 10 -5 0 -7
-4 -4 -10z"/>
<path d="M88 2254 c-4 -3 -4 -12 -1 -20 4 -12 0 -14 -20 -9 -14 4 -28 2 -31
-4 -4 -6 -12 -11 -17 -11 -6 0 -7 5 -4 10 3 6 1 10 -4 10 -6 0 -11 -7 -11 -15
0 -8 5 -15 11 -15 8 0 7 -5 -1 -15 -7 -9 -10 -19 -6 -22 4 -4 10 -2 14 4 4 6
23 14 42 18 54 11 72 24 68 48 -3 21 -28 34 -40 21z"/>
<path d="M390 2250 c0 -5 7 -10 16 -10 8 0 12 5 9 10 -3 6 -10 10 -16 10 -5 0
-9 -4 -9 -10z"/>
<path d="M3230 2250 c0 -5 5 -10 10 -10 6 0 10 5 10 10 0 6 -4 10 -10 10 -5 0
-10 -4 -10 -10z"/>
<path d="M3140 2240 c0 -5 8 -14 18 -19 15 -10 15 -13 -11 -36 -19 -17 -23
-25 -13 -25 9 0 16 5 16 10 0 6 9 10 20 10 13 0 20 7 20 20 0 11 -4 20 -10 20
-5 0 -10 7 -10 15 0 8 -7 15 -15 15 -8 0 -15 -4 -15 -10z"/>
<path d="M3190 2236 c0 -20 19 -31 32 -18 7 7 3 14 -11 21 -17 10 -21 9 -21
-3z"/>
<path d="M3653 2195 c0 -8 4 -12 9 -9 5 3 6 10 3 15 -9 13 -12 11 -12 -6z"/>
<path d="M3606 2172 c2 -3 -1 -11 -7 -18 -6 -7 -6 -14 -1 -18 13 -8 25 25 14
34 -5 4 -7 5 -6 2z"/>
<path d="M3250 2160 c0 -5 5 -10 10 -10 6 0 10 5 10 10 0 6 -4 10 -10 10 -5 0
-10 -4 -10 -10z"/>
<path d="M3355 2120 c3 -5 10 -10 16 -10 5 0 9 5 9 10 0 6 -7 10 -16 10 -8 0
-12 -4 -9 -10z"/>
<path d="M0 2075 c0 -9 5 -15 11 -13 14 5 14 21 0 26 -6 2 -11 -4 -11 -13z"/>
<path d="M70 2060 c0 -5 7 -10 15 -10 8 0 15 5 15 10 0 6 -7 10 -15 10 -8 0
-15 -4 -15 -10z"/>
<path d="M3270 2059 c0 -5 5 -7 10 -4 6 3 10 8 10 11 0 2 -4 4 -10 4 -5 0 -10
-5 -10 -11z"/>
<path d="M3551 2056 c-7 -8 -8 -17 -3 -19 4 -3 13 3 20 14 14 22 0 26 -17 5z"/>
<path d="M3475 2050 c3 -5 8 -10 11 -10 2 0 4 5 4 10 0 6 -5 10 -11 10 -5 0
-7 -4 -4 -10z"/>
<path d="M3220 2036 c0 -8 5 -18 10 -21 6 -3 10 1 10 9 0 8 -4 18 -10 21 -5 3
-10 -1 -10 -9z"/>
<path d="M3260 2000 c0 -5 5 -10 10 -10 6 0 10 5 10 10 0 6 -4 10 -10 10 -5 0
-10 -4 -10 -10z"/>
<path d="M3417 2003 c-10 -9 -9 -23 2 -23 5 0 11 7 15 15 5 15 -5 20 -17 8z"/>
<path d="M313 1977 c-24 -11 -28 -23 -15 -44 12 -20 45 8 40 34 -2 17 -6 19
-25 10z"/>
<path d="M3215 1980 c-3 -5 -1 -10 5 -10 6 0 8 -10 4 -25 -8 -33 16 -33 52 0
l26 25 -26 10 c-34 13 -53 13 -61 0z"/>
<path d="M3334 1965 c16 -16 66 -21 66 -6 0 9 -34 21 -63 21 -16 0 -17 -2 -3
-15z"/>
<path d="M3474 1949 c-3 -6 -2 -15 3 -20 5 -5 9 -1 9 11 0 23 -2 24 -12 9z"/>
<path d="M3293 1918 c-18 -6 -33 -15 -33 -19 0 -12 7 -11 30 1 15 8 17 6 13
-10 -3 -11 -9 -20 -13 -20 -4 0 -12 -12 -19 -27 -10 -22 -10 -28 4 -35 8 -5
13 -13 10 -19 -4 -5 4 -9 17 -9 13 0 18 4 13 8 -15 11 -15 62 0 62 16 0 27 38
13 46 -5 3 -7 12 -4 20 3 8 4 14 3 13 -1 -1 -17 -6 -34 -11z"/>
<path d="M320 1900 c0 -5 6 -10 14 -10 8 0 23 -3 33 -6 16 -5 16 -4 -1 10 -22
18 -46 21 -46 6z"/>
<path d="M3360 1900 c0 -5 5 -10 11 -10 5 0 7 5 4 10 -3 6 -8 10 -11 10 -2 0
-4 -4 -4 -10z"/>
<path d="M408 1881 c-21 -12 -26 -21 -22 -36 8 -26 11 -28 23 -20 6 3 11 17
11 30 0 13 6 25 13 28 6 2 10 6 7 9 -3 3 -17 -2 -32 -11z"/>
<path d="M116 1851 c-4 -7 -5 -15 -2 -18 9 -9 19 4 14 18 -4 11 -6 11 -12 0z"/>
<path d="M153 1810 c-3 -11 -9 -20 -14 -20 -5 0 -4 -9 3 -20 17 -27 28 -25 28
5 0 14 5 25 10 25 6 0 10 -4 10 -10 0 -18 17 -10 27 13 10 22 9 24 -24 25 -27
1 -36 -3 -40 -18z"/>
<path d="M3387 1813 c3 -7 8 -13 12 -13 4 0 8 6 8 13 0 8 -6 14 -13 14 -7 0
-10 -6 -7 -14z"/>
<path d="M10 1792 c-5 -2 -10 -26 -10 -54 0 -44 2 -49 15 -38 10 9 15 9 15 1
0 -6 7 -11 15 -11 8 0 15 -4 15 -10 0 -5 7 -10 16 -10 25 0 14 55 -11 56 -11
1 -26 2 -32 3 -22 2 -14 16 17 34 17 10 30 22 30 26 0 8 -49 10 -70 3z"/>
<path d="M3290 1760 c0 -5 5 -10 10 -10 6 0 10 5 10 10 0 6 -4 10 -10 10 -5 0
-10 -4 -10 -10z"/>
<path d="M170 1725 c0 -8 9 -15 20 -15 11 0 20 2 20 5 0 2 -9 9 -20 15 -16 9
-20 8 -20 -5z"/>
<path d="M250 1695 c0 -28 16 -31 44 -10 19 15 19 15 -2 15 -12 0 -22 5 -22
10 0 6 -4 10 -10 10 -5 0 -10 -11 -10 -25z"/>
<path d="M130 1673 c0 -6 -6 -13 -12 -15 -7 -3 13 -4 45 -3 32 1 63 7 69 13
14 14 13 14 -52 16 -32 1 -50 -3 -50 -11z"/>
<path d="M330 1680 c0 -5 5 -10 11 -10 5 0 7 5 4 10 -3 6 -8 10 -11 10 -2 0
-4 -4 -4 -10z"/>
<path d="M289 1643 c-5 -34 -5 -83 0 -83 13 1 40 27 34 33 -3 4 1 7 11 7 10 0
14 5 11 11 -4 6 -14 8 -22 5 -11 -4 -13 -1 -8 14 5 14 2 20 -9 20 -9 0 -16 -3
-17 -7z"/>
<path d="M355 1590 c-3 -5 -1 -10 4 -10 6 0 11 5 11 10 0 6 -2 10 -4 10 -3 0
-8 -4 -11 -10z"/>
<path d="M226 1569 c-19 -19 -19 -19 2 -19 12 0 26 9 32 20 14 27 -8 26 -34
-1z"/>
<path d="M328 1563 c7 -3 16 -2 19 1 4 3 -2 6 -13 5 -11 0 -14 -3 -6 -6z"/>
<path d="M250 1520 c0 -5 5 -10 10 -10 6 0 10 5 10 10 0 6 -4 10 -10 10 -5 0
-10 -4 -10 -10z"/>
<path d="M290 1500 c0 -5 5 -10 10 -10 6 0 10 5 10 10 0 6 -4 10 -10 10 -5 0
-10 -4 -10 -10z"/>
<path d="M3116 1395 c4 -8 11 -15 16 -15 6 0 5 6 -2 15 -7 8 -14 15 -16 15 -2
0 -1 -7 2 -15z"/>
<path d="M410 1359 c0 -5 5 -7 10 -4 6 3 10 8 10 11 0 2 -4 4 -10 4 -5 0 -10
-5 -10 -11z"/>
<path d="M3021 1224 c0 -11 3 -14 6 -6 3 7 2 16 -1 19 -3 4 -6 -2 -5 -13z"/>
<path d="M420 1201 c0 -6 5 -13 10 -16 6 -3 10 1 10 9 0 9 -4 16 -10 16 -5 0
-10 -4 -10 -9z"/>
<path d="M3005 1180 c3 -5 8 -10 11 -10 2 0 4 5 4 10 0 6 -5 10 -11 10 -5 0
-7 -4 -4 -10z"/>
<path d="M2957 1130 c3 -19 7 -36 7 -37 1 -1 11 12 21 30 15 25 15 29 3 19
-14 -11 -18 -10 -27 5 -8 14 -9 10 -4 -17z"/>
<path d="M455 1130 c3 -5 8 -10 11 -10 2 0 4 5 4 10 0 6 -5 10 -11 10 -5 0 -7
-4 -4 -10z"/>
<path d="M2897 1124 c-4 -4 -7 -19 -7 -34 0 -31 -32 -65 -53 -57 -11 4 -14 -4
-13 -32 0 -29 6 -40 23 -48 19 -9 25 -8 33 7 11 20 4 30 -22 30 -11 0 -16 5
-13 10 3 6 19 10 36 10 19 0 29 5 29 15 0 8 4 15 8 15 12 0 9 83 -4 87 -5 2
-13 0 -17 -3z m20 -36 c-3 -7 -5 -2 -5 12 0 14 2 19 5 13 2 -7 2 -19 0 -25z"/>
<path d="M2751 954 c-32 -27 -43 -58 -16 -48 10 4 15 0 15 -12 0 -15 2 -16 9
-5 6 8 19 12 36 9 19 -4 25 -2 21 8 -3 8 0 13 6 11 7 -1 13 7 15 18 3 12 1 16
-4 8 -6 -8 -14 -8 -33 2 -14 8 -19 14 -12 15 14 0 17 20 3 20 -5 0 -23 -12
-40 -26z"/>
<path d="M930 895 c0 -14 5 -25 10 -25 6 0 10 11 10 25 0 14 -4 25 -10 25 -5
0 -10 -11 -10 -25z"/>
<path d="M2800 860 c0 -11 2 -20 5 -20 2 0 9 9 15 20 9 16 8 20 -5 20 -8 0
-15 -9 -15 -20z"/>
<path d="M1010 860 c0 -5 5 -10 10 -10 6 0 10 5 10 10 0 6 -4 10 -10 10 -5 0
-10 -4 -10 -10z"/>
<path d="M966 835 c25 -19 40 -19 24 0 -7 8 -20 15 -28 15 -13 0 -12 -3 4 -15z"/>
<path d="M2750 830 c0 -21 16 -44 23 -33 4 6 0 19 -8 29 -11 15 -14 16 -15 4z"/>
<path d="M770 780 c0 -5 5 -10 10 -10 6 0 10 5 10 10 0 6 -4 10 -10 10 -5 0
-10 -4 -10 -10z"/>
<path d="M1081 774 c0 -11 3 -14 6 -6 3 7 2 16 -1 19 -3 4 -6 -2 -5 -13z"/>
<path d="M442 732 c-2 -45 18 -95 32 -81 3 3 3 33 0 67 -8 75 -29 83 -32 14z"/>
<path d="M244 740 c1 -8 10 -16 21 -17 15 -1 15 0 3 3 -9 3 -19 11 -21 17 -2
7 -3 5 -3 -3z"/>
<path d="M202 700 c0 -14 2 -19 5 -12 2 6 2 18 0 25 -3 6 -5 1 -5 -13z"/>
<path d="M2555 710 c-3 -5 -15 -10 -25 -10 -13 0 -17 -5 -14 -15 8 -19 44 -20
44 -1 0 8 5 16 12 18 9 3 9 6 1 11 -7 4 -14 3 -18 -3z"/>
<path d="M1185 700 c3 -5 14 -10 24 -10 9 0 22 -5 29 -12 7 -7 12 -8 12 -2 0
17 -23 34 -48 34 -13 0 -20 -4 -17 -10z"/>
<path d="M1083 693 c-7 -3 -13 -15 -13 -29 0 -17 -7 -25 -25 -30 -16 -4 -25
-13 -25 -26 0 -17 4 -19 26 -14 19 5 25 3 22 -6 -6 -16 -48 -24 -48 -9 0 15
-33 14 -48 -1 -18 -18 -14 -33 4 -17 14 11 18 10 30 -6 11 -15 17 -17 23 -7
10 17 61 -2 61 -23 0 -18 9 -19 30 -4 11 8 12 12 3 16 -15 6 -17 33 -3 33 6 0
10 -7 10 -15 0 -27 19 -16 22 13 2 19 8 26 21 24 11 -2 17 4 17 16 0 21 -32
40 -38 22 -2 -5 -13 -15 -24 -21 -19 -10 -20 -9 -15 10 3 11 1 21 -3 21 -5 0
-10 13 -12 28 -2 18 -8 27 -15 25z"/>
<path d="M1115 680 c-3 -5 -1 -10 4 -10 6 0 11 5 11 10 0 6 -2 10 -4 10 -3 0
-8 -4 -11 -10z"/>
<path d="M1326 676 c3 -9 11 -16 16 -16 13 0 5 23 -10 28 -7 2 -10 -2 -6 -12z"/>
<path d="M150 638 c-9 -58 -3 -265 8 -283 9 -17 10 -17 16 3 4 12 12 22 17 22
5 0 9 32 9 70 0 56 -3 70 -15 70 -12 0 -15 15 -15 75 0 76 -12 101 -20 43z"/>
<path d="M1155 660 c-3 -5 1 -10 10 -10 9 0 13 5 10 10 -3 6 -8 10 -10 10 -2
0 -7 -4 -10 -10z"/>
<path d="M392 653 c-17 -7 4 -33 27 -33 14 1 14 2 -2 11 -9 6 -15 14 -12 20 7
10 6 10 -13 2z"/>
<path d="M1240 640 c0 -5 4 -10 9 -10 6 0 13 5 16 10 3 6 -1 10 -9 10 -9 0
-16 -4 -16 -10z"/>
<path d="M2653 633 c-7 -3 -13 -12 -13 -21 0 -15 2 -15 17 1 18 18 16 27 -4
20z"/>
<path d="M1292 592 c1 -23 7 -47 14 -53 9 -8 10 -1 3 33 -14 63 -18 68 -17 20z"/>
<path d="M445 610 c3 -5 10 -10 16 -10 5 0 9 5 9 10 0 6 -7 10 -16 10 -8 0
-12 -4 -9 -10z"/>
<path d="M1210 601 c0 -24 25 -45 45 -37 21 8 19 33 -4 46 -29 15 -41 12 -41
-9z"/>
<path d="M1310 605 c0 -3 9 -14 20 -25 15 -15 25 -18 37 -12 13 8 10 12 -17
26 -36 17 -40 19 -40 11z"/>
<path d="M905 550 c5 -14 2 -20 -9 -20 -9 0 -16 -4 -16 -10 0 -5 18 -10 40
-10 39 0 40 1 28 23 -7 12 -11 25 -10 30 1 4 -7 7 -19 7 -16 0 -19 -4 -14 -20z"/>
<path d="M1164 549 c-27 -38 -38 -69 -26 -81 9 -9 12 -5 12 18 0 29 0 29 18 8
20 -25 46 -36 67 -28 17 7 21 44 5 44 -5 0 -10 -4 -10 -10 0 -5 -9 -10 -20
-10 -13 0 -22 9 -26 28 -3 15 -7 31 -8 36 -1 4 -6 2 -12 -5z"/>
<path d="M1465 538 c-4 -14 -8 -18 -12 -10 -2 6 -16 12 -30 12 -21 0 -24 -2
-13 -15 7 -8 22 -15 35 -15 29 0 38 -10 24 -27 -9 -10 -7 -13 11 -13 16 0 20
4 16 16 -3 9 -6 29 -6 45 0 34 -15 38 -25 7z"/>
<path d="M1274 499 c-3 -5 -3 -13 1 -19 7 -11 47 2 46 15 -1 13 -40 15 -47 4z"/>
<path d="M1340 500 c0 -5 11 -10 25 -10 19 0 25 -5 25 -21 0 -14 5 -19 17 -17
19 4 26 18 15 34 -10 15 -82 28 -82 14z"/>
<path d="M2310 480 c0 -5 6 -10 14 -10 8 0 18 5 21 10 3 6 -3 10 -14 10 -12 0
-21 -4 -21 -10z"/>
<path d="M677 461 c-3 -12 -1 -21 4 -21 5 0 9 -7 9 -15 0 -8 -3 -15 -8 -15 -4
0 -7 -45 -7 -100 0 -80 3 -103 18 -120 21 -25 21 -30 2 -30 -11 0 -15 -11 -15
-40 0 -29 4 -40 15 -40 8 0 15 -9 15 -20 0 -11 -7 -20 -15 -20 -8 0 -15 -9
-15 -20 0 -20 6 -20 268 -19 194 1 259 4 236 11 -25 8 -37 23 -60 71 -29 62
-29 62 -92 79 -35 9 -72 26 -82 38 -10 12 -27 22 -38 23 -14 1 -18 7 -15 22 4
16 3 17 -6 5 -8 -12 -10 -11 -8 7 0 12 5 19 9 17 4 -3 8 3 9 13 0 10 3 13 6 6
6 -17 23 -16 23 1 0 16 -54 38 -66 28 -4 -4 -4 -1 0 6 4 7 17 11 29 8 12 -3 8
1 -10 9 -17 8 -34 19 -38 25 -4 6 -16 8 -27 4 -16 -5 -20 -3 -15 9 8 22 -16
40 -32 24 -10 -9 -12 -9 -9 2 2 7 -13 22 -32 33 -19 11 -38 25 -41 30 -3 5 -9
0 -12 -11z"/>
<path d="M1147 432 c1 -8 3 -18 3 -23 0 -5 7 -9 15 -9 8 0 15 7 15 15 0 8 -6
15 -14 15 -8 0 -16 3 -19 8 -2 4 -2 1 0 -6z"/>
<path d="M1360 436 c0 -8 -3 -21 -6 -30 -4 -10 -1 -16 8 -16 10 0 15 11 15 30
0 17 -4 30 -9 30 -4 0 -8 -6 -8 -14z"/>
<path d="M1470 440 c0 -5 7 -10 16 -10 8 0 12 5 9 10 -3 6 -10 10 -16 10 -5 0
-9 -4 -9 -10z"/>
<path d="M2368 425 c5 -29 8 -30 28 -10 13 12 12 15 -5 25 -27 14 -29 13 -23
-15z"/>
<path d="M940 405 c-14 -16 -3 -20 19 -6 8 5 9 11 3 15 -5 3 -15 -1 -22 -9z"/>
<path d="M2030 406 c0 -9 5 -16 10 -16 6 0 10 4 10 9 0 6 -4 13 -10 16 -5 3
-10 -1 -10 -9z"/>
<path d="M1020 382 c0 -18 5 -32 10 -32 6 0 8 11 4 28 -10 39 -14 40 -14 4z"/>
<path d="M1050 390 c0 -5 5 -10 10 -10 6 0 10 5 10 10 0 6 -4 10 -10 10 -5 0
-10 -4 -10 -10z"/>
<path d="M920 372 c0 -11 41 -34 48 -28 3 4 -3 13 -14 21 -21 16 -34 19 -34 7z"/>
<path d="M1343 345 c0 -22 2 -30 4 -17 2 12 2 30 0 40 -3 9 -5 -1 -4 -23z"/>
<path d="M1416 352 c-3 -6 -1 -14 5 -17 15 -10 25 3 12 16 -7 7 -13 7 -17 1z"/>
<path d="M1224 334 c3 -9 6 -22 6 -30 0 -22 27 -16 33 8 8 28 1 38 -25 38 -14
0 -18 -5 -14 -16z"/>
<path d="M1097 333 c-4 -3 -7 -11 -7 -17 0 -6 5 -5 12 2 6 6 9 14 7 17 -3 3
-9 2 -12 -2z"/>
<path d="M1784 329 c-10 -17 13 -36 27 -22 12 12 4 33 -11 33 -5 0 -12 -5 -16
-11z"/>
<path d="M985 320 c3 -5 10 -10 16 -10 5 0 9 5 9 10 0 6 -7 10 -16 10 -8 0
-12 -4 -9 -10z"/>
<path d="M1476 321 c-4 -5 -2 -12 3 -15 5 -4 12 -2 15 3 4 5 2 12 -3 15 -5 4
-12 2 -15 -3z"/>
<path d="M1031 304 c0 -11 3 -14 6 -6 3 7 2 16 -1 19 -3 4 -6 -2 -5 -13z"/>
<path d="M1755 310 c3 -5 8 -10 11 -10 2 0 4 5 4 10 0 6 -5 10 -11 10 -5 0 -7
-4 -4 -10z"/>
<path d="M1090 289 c0 -5 5 -9 11 -9 6 0 9 -7 6 -14 -4 -11 -1 -13 10 -9 11 4
14 2 9 -5 -4 -7 -1 -12 8 -12 9 0 16 5 16 10 0 6 5 10 10 10 7 0 7 -6 0 -20
-8 -15 -8 -18 3 -14 8 3 21 -2 30 -10 9 -9 20 -16 26 -16 6 0 11 -7 11 -15 0
-15 53 -59 73 -61 7 0 17 -2 24 -2 6 -1 25 -14 42 -28 17 -14 31 -23 31 -20 0
4 13 0 30 -9 40 -21 53 -19 45 5 -4 12 -1 28 6 36 9 11 8 18 -6 34 -10 11 -14
24 -9 32 5 7 7 26 5 42 -1 16 3 32 10 37 27 17 -4 23 -32 6 -31 -17 -32 -17
-74 21 -17 15 -33 16 -17 0 19 -19 14 -44 -13 -58 -30 -16 -32 -31 -5 -48 11
-7 20 -8 20 -3 0 5 -6 11 -12 14 -17 6 -9 13 26 21 27 7 28 6 24 -25 -5 -29
-4 -30 9 -14 7 11 13 25 13 33 0 7 4 11 9 8 5 -3 12 6 15 20 12 45 18 18 11
-44 -6 -55 -9 -60 -33 -65 -15 -3 -31 0 -37 6 -5 7 -21 14 -35 16 -14 1 -33 7
-42 12 -9 5 -24 6 -32 3 -19 -7 -19 -4 -7 29 9 22 6 27 -20 37 -19 8 -29 20
-29 34 0 11 -5 28 -10 36 -9 13 -11 13 -20 0 -6 -10 -13 -11 -17 -5 -10 13
-83 17 -83 4z"/>
<path d="M1600 290 c-8 -5 -11 -12 -8 -16 10 -9 38 3 38 16 0 12 -10 13 -30 0z"/>
<path d="M1060 276 c0 -2 7 -7 16 -10 8 -3 12 -2 9 4 -6 10 -25 14 -25 6z"/>
<path d="M1280 245 c-7 -9 -11 -18 -8 -20 7 -8 38 5 38 15 0 17 -18 19 -30 5z"/>
<path d="M1633 253 c-20 -7 -15 -23 6 -23 24 0 51 10 51 19 0 7 -40 10 -57 4z"/>
<path d="M1500 160 c0 -5 5 -10 10 -10 6 0 10 5 10 10 0 6 -4 10 -10 10 -5 0
-10 -4 -10 -10z"/>
<path d="M2399 133 c-13 -16 -12 -17 4 -4 16 13 21 21 13 21 -2 0 -10 -8 -17
-17z"/>
<path d="M1430 36 c0 -2 7 -7 16 -10 8 -3 12 -2 9 4 -6 10 -25 14 -25 6z"/>
</g>
</svg>
